<?xml version="1.0" encoding="UTF-8"?>
<svg version="1.1" xmlns="http://www.w3.org/2000/svg" width="649" height="379">
<path d="M0 0 C214.17 0 428.34 0 649 0 C649 125.07 649 250.14 649 379 C434.83 379 220.66 379 0 379 C0 253.93 0 128.86 0 0 Z " fill="#FEFEFE" transform="translate(0,0)"/>
<path d="M0 0 C1.65 0 3.3 0 5 0 C5 0.99 5 1.98 5 3 C6.0621875 2.98839844 7.124375 2.97679688 8.21875 2.96484375 C22.15671621 2.8594527 22.15671621 2.8594527 29 4 C29 4.99 29 5.98 29 7 C23.72 6.67 18.44 6.34 13 6 C13 29.76 13 53.52 13 78 C16.3 78 19.6 78 23 78 C30.91769199 79.69267114 38.00018894 84.73020397 44 90 C44 90.66 44 91.32 44 92 C48.62 92 53.24 92 58 92 C56 98 56 98 54.8125 99.875 C53.47688084 103.36815779 54.35251085 106.35051569 55 110 C55.33 110.66 55.66 111.32 56 112 C56.92717533 125.58843837 55.73819448 136.98603708 47.07421875 148.0625 C45.82062648 149.89882397 45.82062648 149.89882397 46.15611267 151.82305908 C47.32457521 154.83729312 49.13491073 156.49383144 51.42797852 158.76855469 C51.88654236 159.22755661 52.3451062 159.68655853 52.81756592 160.1594696 C54.33100888 161.670827 55.85479014 163.17128789 57.37890625 164.671875 C58.43188162 165.7192536 59.48419543 166.76729769 60.53587341 167.815979 C63.30269969 170.57136295 66.0784171 173.31761824 68.8560791 176.06207275 C71.69007411 178.86535382 74.51557253 181.67716993 77.34179688 184.48828125 C82.88624795 190.00057896 88.44011909 195.50326105 94 201 C95.11677492 200.05052441 96.23244654 199.09975103 97.34765625 198.1484375 C97.96906494 197.61911621 98.59047363 197.08979492 99.23071289 196.54443359 C101.2481965 194.78334607 103.14412108 192.93011408 105 191 C105 195.90794949 103.27346816 197.42269241 100.0625 200.75 C99.56685547 201.2749707 99.07121094 201.79994141 98.56054688 202.34082031 C89.53638115 211.78673002 89.53638115 211.78673002 85 215 C84.01 215 83.02 215 82 215 C83.16290805 211.51127585 84.13967609 210.90023136 87.0625 208.8125 C87.79597656 208.28269531 88.52945313 207.75289062 89.28515625 207.20703125 C89.85105469 206.80871094 90.41695312 206.41039062 91 206 C90.46602951 201.92925515 88.42786346 200.06444055 85.57202148 197.23144531 C85.11345764 196.77244339 84.6548938 196.31344147 84.18243408 195.8405304 C82.66899112 194.329173 81.14520986 192.82871211 79.62109375 191.328125 C78.56811838 190.2807464 77.51580457 189.23270231 76.46412659 188.184021 C73.69730031 185.42863705 70.9215829 182.68238176 68.1439209 179.93792725 C65.30992589 177.13464618 62.48442747 174.32283007 59.65820312 171.51171875 C54.11375205 165.99942104 48.55988091 160.49673895 43 155 C40.42006602 156.28793055 37.84822867 157.58899524 35.28515625 158.91015625 C33.87768727 159.62776719 32.47013276 160.34521038 31.0625 161.0625 C30.00772461 161.60874023 30.00772461 161.60874023 28.93164062 162.16601562 C25.9443209 163.68067352 23.49968205 164.91856011 20.171875 165.4609375 C17.80574989 165.80834762 17.80574989 165.80834762 16.41796875 168.06640625 C16.01191406 168.89011719 15.60585938 169.71382812 15.1875 170.5625 C14.55908203 171.80193359 14.55908203 171.80193359 13.91796875 173.06640625 C13.61503906 173.70449219 13.31210937 174.34257812 13 175 C12.34 175 11.68 175 11 175 C10.68482422 174.09507812 10.68482422 174.09507812 10.36328125 173.171875 C8.59859404 169.1045662 7.30824715 166.56524809 3.125 164.7578125 C0.88395088 164.16055177 -1.36388137 163.58827379 -3.6171875 163.0390625 C-8.83457675 161.43649259 -12.78549375 158.38682669 -17 155 C-20.61692773 156.52897576 -22.9203522 158.67815633 -25.67675781 161.44970703 C-26.59741028 162.37051056 -27.51806274 163.29131409 -28.46661377 164.24002075 C-29.4622253 165.24584465 -30.45772648 166.2517778 -31.453125 167.2578125 C-32.47830193 168.28672149 -33.50392275 169.31518837 -34.52996826 170.3432312 C-37.22393164 173.04481581 -39.91183368 175.75235341 -42.59851074 178.46118164 C-45.34328304 181.22644489 -48.09375472 183.98602633 -50.84375 186.74609375 C-56.23475573 192.15852274 -61.61936964 197.57725438 -67 203 C-65.12748572 206.98844517 -62.91906039 208.87451884 -59.4609375 211.53515625 C-58 213 -58 213 -58 216 C-61.87912951 214.38369604 -64.71553641 211.76506835 -67.75 208.9375 C-68.2749707 208.451604 -68.79994141 207.96570801 -69.34082031 207.46508789 C-73.82899727 203.25896609 -78.31068451 198.9371722 -82 194 C-82 193.34 -82 192.68 -82 192 C-78.14896699 192.53675903 -76.68202413 194.11600923 -74.25 197.0625 C-73.63640625 197.79597656 -73.0228125 198.52945313 -72.390625 199.28515625 C-71.93171875 199.85105469 -71.4728125 200.41695312 -71 201 C-61.97702961 193.48952414 -53.79228537 185.09205895 -45.47265625 176.82275391 C-43.48339819 174.846939 -41.4870758 172.87869045 -39.484375 170.91650391 C-36.59008571 168.08072437 -33.71629154 165.22499725 -30.84375 162.3671875 C-29.94184937 161.48795624 -29.03994873 160.60872498 -28.11071777 159.70285034 C-27.2923645 158.88164703 -26.47401123 158.06044373 -25.63085938 157.21435547 C-24.90362671 156.49520966 -24.17639404 155.77606384 -23.42712402 155.03512573 C-21.76000296 153.12309456 -21.76000296 153.12309456 -22.18933105 150.88674927 C-23.23297433 148.45777601 -24.52798768 146.29911001 -25.9375 144.0625 C-30.89910598 136.17513128 -32.17878306 129.27482381 -32.1875 120 C-32.19974609 119.31421875 -32.21199219 118.6284375 -32.22460938 117.921875 C-32.23714306 113.54344203 -31.55493796 110.07645899 -30 106 C-29.22912411 100.9893067 -31.48305868 98.16868406 -34 94 C-34 93.34 -34 92.68 -34 92 C-33.0821875 92.00902344 -32.164375 92.01804687 -31.21875 92.02734375 C-22.73818467 91.97748628 -22.73818467 91.97748628 -15.75 87.75 C-15.15316406 87.12351562 -14.55632812 86.49703125 -13.94140625 85.8515625 C-6.81183918 79.05193515 1.53535778 78 11 78 C11 54.24 11 30.48 11 6 C9.02 6 7.04 6 5 6 C5 9.96 5 13.92 5 18 C3.35 18 1.7 18 0 18 C0 14.37 0 10.74 0 7 C-1.32 7 -2.64 7 -4 7 C-4 6.01 -4 5.02 -4 4 C-2.68 4 -1.36 4 0 4 C0 2.68 0 1.36 0 0 Z " fill="#1AC5CE" transform="translate(312,107)"/>
<path d="M0 0 C27.72 0 55.44 0 84 0 C82.53534677 3.66163308 81.05405549 6.92045674 79.19921875 10.3671875 C78.64089355 11.40593018 78.08256836 12.44467285 77.50732422 13.51489258 C76.60651123 15.17814575 76.60651123 15.17814575 75.6875 16.875 C75.06375488 18.02959717 74.44000977 19.18419434 73.79736328 20.3737793 C67.68201151 31.66793148 61.37135906 42.84868016 55 54 C53.83981594 56.0338383 52.67965996 58.06769262 51.51953125 60.1015625 C48.68377815 65.07005356 45.84373157 70.03607151 43 75 C42.34 75 41.68 75 41 75 C40.08203125 73.34765625 39.1640625 71.6953125 38.24609375 70.04296875 C37.64635742 68.96345947 37.04662109 67.8839502 36.42871094 66.77172852 C35.08423725 64.35168423 33.7398458 61.93159428 32.39550781 59.51147461 C28.94859161 53.30639065 25.50083631 47.1017769 22.05078125 40.8984375 C18.36343713 34.2677036 14.68006059 27.63477889 11 21 C10.43104004 19.97471191 9.86208008 18.94942383 9.27587891 17.89306641 C7.7022917 15.05506375 6.13178422 12.21538375 4.5625 9.375 C4.09553711 8.53332275 3.62857422 7.69164551 3.14746094 6.82446289 C0 1.11529828 0 1.11529828 0 0 Z " fill="#FBFCFE" transform="translate(282,202)"/>
<path d="M0 0 C0 2.97 0 5.94 0 9 C-1.34191406 9.30292969 -2.68382812 9.60585937 -4.06640625 9.91796875 C-34.64435817 16.92411863 -59.59123919 28.79104296 -82 51 C-82.78890625 51.77601563 -83.5778125 52.55203125 -84.390625 53.3515625 C-109.52133745 79.65745215 -121.66336431 115.98058094 -121.35083008 151.90307617 C-120.6444513 179.85336922 -111.65881878 208.35260663 -94.51953125 230.6015625 C-94.01808594 231.39304687 -93.51664063 232.18453125 -93 233 C-94.14099526 236.42298577 -95.00085621 237.14758766 -98 239 C-98.99 239 -99.98 239 -101 239 C-102.72601954 236.86623517 -104.20810182 234.79778866 -105.6875 232.5 C-106.12521729 231.83234619 -106.56293457 231.16469238 -107.01391602 230.47680664 C-111.62657808 223.2845357 -115.33742786 215.70578111 -119 208 C-119.77537109 206.53240234 -119.77537109 206.53240234 -120.56640625 205.03515625 C-122.26868951 201.43113966 -123.40818137 197.82529574 -124.5 194 C-124.71430664 193.25886963 -124.92861328 192.51773926 -125.14941406 191.75415039 C-136.27747965 152.54156633 -132.36040018 111.94616424 -113 76 C-92.5393219 39.76912213 -59.20010718 13.95358301 -19.22607422 2.67114258 C-18.40896973 2.44966553 -17.59186523 2.22818848 -16.75 2 C-15.60748779 1.68808716 -15.60748779 1.68808716 -14.44189453 1.36987305 C-9.50814001 0.12415732 -5.08650035 -0.18412671 0 0 Z " fill="#1CC6CE" transform="translate(305,80)"/>
<path d="M0 0 C32.88412261 1.66429242 63.86908546 19.41900319 87 42 C87.77472656 42.71285156 88.54945313 43.42570312 89.34765625 44.16015625 C113.83576125 67.26621653 129.62936221 103.88111314 131.15234375 137.34765625 C131.50446382 150.29158998 131.70551353 163.2856503 129 176 C128.76667969 177.26457031 128.53335938 178.52914062 128.29296875 179.83203125 C124.0246846 201.41969919 113.98827199 221.38465612 101 239 C97.63408134 237.55746343 95.48952921 235.66735273 93 233 C93.38929688 232.49855469 93.77859375 231.99710938 94.1796875 231.48046875 C115.77998664 202.26531761 125.0455966 165.34298904 120.125 129.39331055 C119.52613612 125.57126457 118.79627477 121.78536773 118 118 C117.74476563 116.75476563 117.48953125 115.50953125 117.2265625 114.2265625 C113.29524104 97.59959744 105.97257993 81.83293345 96 68 C95.61763184 67.45972168 95.23526367 66.91944336 94.84130859 66.36279297 C79.05216113 44.18702406 58.08084812 28.38666702 33 18 C32.30116699 17.69368652 31.60233398 17.38737305 30.88232422 17.07177734 C24.34077024 14.29811665 17.82679307 12.65627875 10.875 11.25 C9.823125 11.02957031 8.77125 10.80914062 7.6875 10.58203125 C5.12656678 10.0465634 2.56423383 9.5193872 0 9 C0 6.03 0 3.06 0 0 Z " fill="#22C7D0" transform="translate(343,80)"/>
<path d="M0 0 C0.66 0 1.32 0 2 0 C4.1875 2.8125 4.1875 2.8125 6 6 C4.65489976 10.03530072 2.03513356 11.38279166 -1.375 13.625 C-2.37007568 14.28097168 -2.37007568 14.28097168 -3.38525391 14.95019531 C-28.69913774 31.16370576 -56.6097669 38.47087427 -86.4375 38.3125 C-87.1567868 38.31067719 -87.87607361 38.30885437 -88.61715698 38.30697632 C-99.35178821 38.26128184 -109.5778516 37.79646008 -120 35 C-120.65097656 34.82839355 -121.30195313 34.65678711 -121.97265625 34.47998047 C-140.3078382 29.53848996 -161.22884998 21.42687127 -175 8 C-174.14242465 5.28434471 -173.52889448 3.4407454 -171.3125 1.59375 C-169 1 -169 1 -166.109375 2.4921875 C-164.98078072 3.27390003 -163.86153519 4.06921526 -162.75 4.875 C-157.57892305 8.41067914 -152.36640553 11.53387142 -146.75 14.3125 C-145.81365723 14.78115479 -145.81365723 14.78115479 -144.85839844 15.25927734 C-136.252917 19.46784656 -127.65751329 22.5738279 -118.3125 24.6875 C-116.96575195 25.00557617 -116.96575195 25.00557617 -115.59179688 25.33007812 C-80.21675216 33.54538155 -42.07431439 26.69202961 -11.1640625 7.8828125 C-5.28208394 4.33386688 -5.28208394 4.33386688 0 0 Z " fill="#1FC7CF" transform="translate(409,340)"/>
<path d="M0 0 C0 1.32 0 2.64 0 4 C-1.92585938 4.4021875 -1.92585938 4.4021875 -3.890625 4.8125 C-42.18247603 13.15586603 -75.63707351 33.7628148 -97.42578125 66.90234375 C-98.29042907 68.26407656 -99.14883124 69.62980153 -100 71 C-100.37946777 71.6098877 -100.75893555 72.21977539 -101.14990234 72.84814453 C-120.45433734 104.66164404 -125.40340071 144.43226331 -116.68896484 180.42871094 C-111.89760379 198.31057294 -103.71438287 214.95427087 -93 230 C-93.66 230.99 -94.32 231.98 -95 233 C-99.37615706 231.51171235 -101.05870646 228.2438132 -103.25 224.4375 C-103.63841064 223.77202148 -104.02682129 223.10654297 -104.42700195 222.42089844 C-124.99198383 186.54601232 -130.87751358 145.96729518 -120.73974609 105.72363281 C-118.98036453 99.24585699 -116.79143731 93.10172312 -114 87 C-113.56131592 86.02377686 -113.56131592 86.02377686 -113.11376953 85.02783203 C-100.44684207 57.23301239 -80.62503155 35.38497824 -55 19 C-53.9584375 18.3296875 -52.916875 17.659375 -51.84375 16.96875 C-37.1409719 7.95736988 -17.40362447 0 0 0 Z " fill="#F1FBFB" transform="translate(302,83)"/>
<path d="M0 0 C3.85473819 3.85473819 4.2673685 8.67287901 4.38037109 13.96289062 C4.35156507 25.55862363 2.38059407 34.72166182 -4.92578125 44.0625 C-6.17937352 45.89882397 -6.17937352 45.89882397 -5.84388733 47.82305908 C-4.67542479 50.83729312 -2.86508927 52.49383144 -0.57202148 54.76855469 C-0.11345764 55.22755661 0.3451062 55.68655853 0.81756592 56.1594696 C2.33100888 57.670827 3.85479014 59.17128789 5.37890625 60.671875 C6.43188162 61.7192536 7.48419543 62.76729769 8.53587341 63.815979 C11.30269969 66.57136295 14.0784171 69.31761824 16.8560791 72.06207275 C19.69007411 74.86535382 22.51557253 77.67716993 25.34179688 80.48828125 C30.88624795 86.00057896 36.44011909 91.50326105 42 97 C43.11677492 96.05052441 44.23244654 95.09975103 45.34765625 94.1484375 C45.96906494 93.61911621 46.59047363 93.08979492 47.23071289 92.54443359 C49.2481965 90.78334607 51.14412108 88.93011408 53 87 C53 91.90794949 51.27346816 93.42269241 48.0625 96.75 C47.56685547 97.2749707 47.07121094 97.79994141 46.56054688 98.34082031 C37.53638115 107.78673002 37.53638115 107.78673002 33 111 C32.01 111 31.02 111 30 111 C31.16290805 107.51127585 32.13967609 106.90023136 35.0625 104.8125 C35.79597656 104.28269531 36.52945313 103.75289063 37.28515625 103.20703125 C37.85105469 102.80871094 38.41695313 102.41039062 39 102 C38.46602951 97.92925515 36.42786346 96.06444055 33.57202148 93.23144531 C33.11345764 92.77244339 32.6548938 92.31344147 32.18243408 91.8405304 C30.66899112 90.329173 29.14520986 88.82871211 27.62109375 87.328125 C26.56811838 86.2807464 25.51580457 85.23270231 24.46412659 84.184021 C21.69730031 81.42863705 18.9215829 78.68238176 16.1439209 75.93792725 C13.30992589 73.13464618 10.48442747 70.32283007 7.65820312 67.51171875 C2.11375205 61.99942104 -3.44011909 56.49673895 -9 51 C-11.59463105 52.29458336 -14.17779676 53.60673049 -16.75 54.9453125 C-18.16655618 55.67209039 -19.58322606 56.3986467 -21 57.125 C-21.7115625 57.49753906 -22.423125 57.87007813 -23.15625 58.25390625 C-23.8471875 58.60582031 -24.538125 58.95773437 -25.25 59.3203125 C-25.87390625 59.64273926 -26.4978125 59.96516602 -27.140625 60.29736328 C-29 61 -29 61 -33 61 C-31.71376313 56.80686005 -30.12599272 53.13817128 -27.98046875 49.31640625 C-27.07409668 47.693396 -27.07409668 47.693396 -26.14941406 46.03759766 C-25.50198242 44.89081543 -24.85455078 43.7440332 -24.1875 42.5625 C-23.51619602 41.36529892 -22.84530259 40.16786756 -22.17480469 38.97021484 C-20.4589265 35.90863719 -18.73658405 32.8507535 -17.01190186 29.79412842 C-15.41298726 26.95921107 -13.81830532 24.12191255 -12.22265625 21.28515625 C-2.96999224 4.8618366 -2.96999224 4.8618366 0 0 Z " fill="#F9FAFE" transform="translate(364,211)"/>
<path d="M0 0 C1.3921875 1.1446875 1.3921875 1.1446875 2.8125 2.3125 C3.47496231 2.85093033 4.13742462 3.38936066 4.81996155 3.94410706 C7 6 7 6 8.93284607 8.7530365 C12.17953364 12.99585216 15.08835458 16.34476958 20.46684647 17.55513382 C26.80144674 18.18702 33.13396977 17.87498768 39.48066902 17.55352974 C43.1651768 17.37564644 46.84330705 17.28222702 50.53135681 17.21214294 C61.00502556 17.00319706 71.47152039 16.68663348 81.93676758 16.21557617 C130.3139796 14.12372617 130.3139796 14.12372617 142.86157894 25.5273428 C147.22729438 29.88916694 150.76596771 34.79802416 154.29570293 39.83998394 C157.28978049 43.82038379 159.74669359 45.03931087 164.60571289 45.90454102 C169.8707648 46.34232813 174.8089693 45.92585518 180 45 C180 46.65 180 48.3 180 50 C172.02577579 51.83752917 163.84194935 52.73980739 156 50 C154.01600381 48.0566042 152.57000114 46.41723025 151.0012207 44.18676758 C144.00014871 34.34423957 136.64735 24.87944828 124.10266113 22.68469238 C117.13661762 21.87567375 110.19649684 21.80881985 103.19140625 21.91015625 C101.96637138 21.92776756 100.74133652 21.94537888 99.47917938 21.96352386 C91.80350804 22.120116 84.14254789 22.45839919 76.47613525 22.85864258 C66.16624666 23.39567456 55.86037591 23.81236261 45.53901482 24.04244804 C41.97168882 24.15717238 38.42716658 24.39242162 34.86683655 24.63819885 C25.21794586 25.05615322 17.87219209 25.08636112 10.17086792 18.6882019 C5.35814286 14.14255249 1.04558351 9.23567291 -3 4 C-2.01 2.68 -1.02 1.36 0 0 Z " fill="#11C5CD" transform="translate(468,77)"/>
<path d="M0 0 C34.58319496 1.43797068 66.85205599 23.40683303 89.75 47.9375 C102.11307565 62.14715526 111.96300643 79.16229883 118 97 C118.28230469 97.76054687 118.56460938 98.52109375 118.85546875 99.3046875 C124.10933424 113.86616241 125.17603569 128.72127754 125.13037109 144.04174805 C125.12498393 146.19391843 125.13036081 148.34588258 125.13671875 150.49804688 C125.13605829 151.88802129 125.1347778 153.27799557 125.1328125 154.66796875 C125.13168457 155.90828857 125.13055664 157.1486084 125.12939453 158.42651367 C124.99867998 162.03645501 124.70412056 165.45570351 124 169 C123.34 169.33 122.68 169.66 122 170 C121.34 169.67 120.68 169.34 120 169 C120.01571045 167.87730713 120.0314209 166.75461426 120.04760742 165.59790039 C120.10279132 161.34667422 120.13666424 157.09547808 120.16479492 152.84399414 C120.17968364 151.02004639 120.20000135 149.19613311 120.22631836 147.37231445 C120.73214188 111.35966314 108.74292882 78.21099708 85 51 C84.39414062 50.27296875 83.78828125 49.5459375 83.1640625 48.796875 C62.48850122 24.28557611 31.07804986 9.54826608 0 4 C0 2.68 0 1.36 0 0 Z " fill="#EDF9FB" transform="translate(346,83)"/>
<path d="M0 0 C1.65 0 3.3 0 5 0 C5 5.28 5 10.56 5 16 C18.2 16 31.4 16 45 16 C45 13.36 45 10.72 45 8 C46.98 8 48.96 8 51 8 C51 14.93 51 21.86 51 29 C49.02 29 47.04 29 45 29 C45 26.69 45 24.38 45 22 C31.8 22 18.6 22 5 22 C5 26.62 5 31.24 5 36 C3.35 36 1.7 36 0 36 C0 31.38 0 26.76 0 22 C-13.2 22 -26.4 22 -40 22 C-40 24.31 -40 26.62 -40 29 C-41.98 29 -43.96 29 -46 29 C-46 22.07 -46 15.14 -46 8 C-44.02 8 -42.04 8 -40 8 C-40 10.64 -40 13.28 -40 16 C-26.8 16 -13.6 16 0 16 C0 10.72 0 5.44 0 0 Z " fill="#99CAEE" transform="translate(312,23)"/>
<path d="M0 0 C2.18679047 0.28941345 2.18679047 0.28941345 4 1 C4 7.02279385 -1.83140445 11.51106355 -5.81676483 15.63145447 C-13.30593631 22.56434967 -19.37625807 23.83207437 -29.3753891 23.66925049 C-31.6585349 23.57169183 -33.94061659 23.44572525 -36.22077942 23.29364014 C-39.8779553 23.05622204 -43.52111627 22.94588652 -47.18493652 22.86572266 C-57.57193586 22.61501902 -67.94535237 22.13240913 -78.32128906 21.60009766 C-85.93203109 21.22634252 -93.53695433 20.97768593 -101.15625 20.875 C-102.37368896 20.85832275 -103.59112793 20.84164551 -104.84545898 20.82446289 C-119.37342563 20.80004286 -130.28998458 21.90455413 -140.97399902 32.36962891 C-145.09352852 36.80062395 -148.68558128 41.54549529 -151.95812988 46.62915039 C-154 49 -154 49 -156.75964355 49.35327148 C-157.49896118 49.23669189 -158.23827881 49.1201123 -159 49 C-159.3125 46.6875 -159.3125 46.6875 -159 44 C-158.24521362 43.56316895 -157.49042725 43.12633789 -156.71276855 42.67626953 C-153.47288829 40.67428799 -152.28974168 38.70950239 -150.28320312 35.4921875 C-143.50101987 26.03877436 -136.14396079 17.7537789 -124.15234375 15.77832031 C-108.37796742 14.0358501 -92.25113705 15.09573534 -76.43859863 15.82110596 C-66.07219179 16.29195577 -55.70736955 16.63646505 -45.33226013 16.83569336 C-41.74037124 16.93517027 -38.16500165 17.13772498 -34.57824707 17.34960938 C-21.91196861 17.97672103 -21.91196861 17.97672103 -10.99487305 12.33642578 C-7.47588292 8.94600392 -4.38531094 5.29335 -1.51570892 1.34034729 C-1.01552498 0.89803268 -0.51534103 0.45571808 0 0 Z " fill="#11C4CD" transform="translate(159,78)"/>
<path d="M0 0 C32.88412261 1.66429242 63.86908546 19.41900319 87 42 C87.77472656 42.71285156 88.54945313 43.42570312 89.34765625 44.16015625 C100.33672979 54.52903516 113.68145074 70.96397735 117 86 C113.55055885 84.85018628 113.43633403 84.49219687 111.87109375 81.421875 C111.28630249 80.3083667 111.28630249 80.3083667 110.68969727 79.17236328 C110.27647217 78.3729834 109.86324707 77.57360352 109.4375 76.75 C92.49116397 45.19947915 63.32968089 21.35087764 29.75390625 9.09375 C20.97068396 6.53464257 11.96698445 4.78696153 3 3 C3 4.32 3 5.64 3 7 C4.0725 7.103125 5.145 7.20625 6.25 7.3125 C32.53127967 10.71252569 57.60424272 23.98025416 76.77734375 41.9375 C78.77011214 43.78667699 80.82449936 45.48002474 82.9375 47.1875 C106.25629423 67.69680095 120.63184223 101.73697143 124 132 C124.22972119 136.71001782 124.28992493 141.40078153 124.26074219 146.11547852 C124.24981207 148.22374926 124.26081762 150.33120462 124.2734375 152.43945312 C124.27211915 153.78646021 124.26956351 155.13346678 124.265625 156.48046875 C124.26336914 157.68598389 124.26111328 158.89149902 124.25878906 160.13354492 C124 163 124 163 122 165 C121.98541748 164.25129639 121.97083496 163.50259277 121.95581055 162.73120117 C121.62830529 147.61851153 121.12358445 132.82010822 118 118 C117.74605469 116.76121094 117.49210937 115.52242188 117.23046875 114.24609375 C113.30068556 97.61180599 105.97657739 81.83847832 96 68 C95.61763184 67.45972168 95.23526367 66.91944336 94.84130859 66.36279297 C79.05216113 44.18702406 58.08084812 28.38666702 33 18 C32.30116699 17.69368652 31.60233398 17.38737305 30.88232422 17.07177734 C24.34077024 14.29811665 17.82679307 12.65627875 10.875 11.25 C9.823125 11.02957031 8.77125 10.80914062 7.6875 10.58203125 C5.12656678 10.0465634 2.56423383 9.5193872 0 9 C0 6.03 0 3.06 0 0 Z " fill="#1CC6CE" transform="translate(343,80)"/>
<path d="M0 0 C13.86 0 27.72 0 42 0 C40.45702015 3.85744961 38.84759512 7.29509841 36.8828125 10.9296875 C35.97208984 12.61771484 35.97208984 12.61771484 35.04296875 14.33984375 C34.72763184 14.9210498 34.41229492 15.50225586 34.08740234 16.10107422 C33.132342 17.86146702 32.18138858 19.62408591 31.23046875 21.38671875 C28.21653773 26.96217254 25.18064002 32.51779132 22 38 C21.34 38 20.68 38 20 38 C19.39414062 36.83726562 18.78828125 35.67453125 18.1640625 34.4765625 C13.25402223 25.08524604 8.25791157 15.7555479 3.04931641 6.52587891 C0 1.10091801 0 1.10091801 0 0 Z " fill="#FBFAFF" transform="translate(303,214)"/>
<path d="M0 0 C4.25830777 4.75868447 6.97313776 10.26974972 9.9375 15.875 C15.13051796 25.59359708 20.46700596 35.21631526 25.94897461 44.77490234 C26.46596924 45.68062988 26.98296387 46.58635742 27.515625 47.51953125 C27.97227539 48.31464111 28.42892578 49.10975098 28.89941406 49.92895508 C30 52 30 52 31 55 C19.27965726 53.10962214 11.01181965 47.57632776 4 38 C2.43896254 35.40756279 1.14840043 32.79709412 0 30 C-0.35835938 29.30390625 -0.71671875 28.6078125 -1.0859375 27.890625 C-2.44155147 23.60364066 -2.28885041 19.46779698 -2.25 15 C-2.25773437 14.11054688 -2.26546875 13.22109375 -2.2734375 12.3046875 C-2.25991284 7.77392591 -2.15636738 4.10736644 0 0 Z " fill="#FAFCFE" transform="translate(285,214)"/>
<path d="M0 0 C2.475 2.475 2.475 2.475 5 5 C3.69634204 7.95443212 2.43497489 9.73970673 -0.08984375 11.7421875 C-0.7039209 12.24339111 -1.31799805 12.74459473 -1.95068359 13.26098633 C-2.60633301 13.79361084 -3.26198242 14.32623535 -3.9375 14.875 C-18.71660039 27.33702306 -29.70022279 43.6733754 -36 62 C-38.31 61.34 -40.62 60.68 -43 60 C-43.7109375 58.4609375 -43.7109375 58.4609375 -44 56 C-42.98105105 53.40793687 -41.91521286 51.07643369 -40.625 48.625 C-40.07743042 47.56478638 -40.07743042 47.56478638 -39.51879883 46.4831543 C-29.63951086 27.69758629 -17.24036552 12.51760582 0 0 Z " fill="#945EFF" transform="translate(254,129)"/>
<path d="M0 0 C1.91767162 1.38554284 3.75555454 2.75677091 5.48828125 4.3671875 C5.48828125 4.6971875 5.48828125 5.0271875 5.48828125 5.3671875 C-13.65171875 5.3671875 -32.79171875 5.3671875 -52.51171875 5.3671875 C-37.95329243 -9.19123882 -17.39994728 -11.31131876 0 0 Z " fill="#FCFCFE" transform="translate(347.51171875,193.6328125)"/>
<path d="M0 0 C0.66 0.66 1.32 1.32 2 2 C1.80669073 3.63781806 1.59852553 5.27528038 1.31494141 6.89990234 C-0.70058933 20.3398988 0.22528873 32.6035475 8.25 43.75 C13.78551063 50.41376758 19.6445743 54.13772778 27.72265625 57.125 C30.3596478 58.13818372 32.68544448 59.37981114 35 61 C35 61.33 35 61.66 35 62 C26.09221781 61.50512321 18.64876761 57.98389085 12 52 C8.38307227 53.52897576 6.0796478 55.67815633 3.32324219 58.44970703 C2.40258972 59.37051056 1.48193726 60.29131409 0.53338623 61.24002075 C-0.4622253 62.24584465 -1.45772648 63.2517778 -2.453125 64.2578125 C-3.47830193 65.28672149 -4.50392275 66.31518837 -5.52996826 67.3432312 C-8.22393164 70.04481581 -10.91183368 72.75235341 -13.59851074 75.46118164 C-16.34328304 78.22644489 -19.09375472 80.98602633 -21.84375 83.74609375 C-27.23475573 89.15852274 -32.61936964 94.57725438 -38 100 C-36.12748572 103.98844517 -33.91906039 105.87451884 -30.4609375 108.53515625 C-29 110 -29 110 -29 113 C-32.87912951 111.38369604 -35.71553641 108.76506835 -38.75 105.9375 C-39.2749707 105.451604 -39.79994141 104.96570801 -40.34082031 104.46508789 C-44.82899727 100.25896609 -49.31068451 95.9371722 -53 91 C-53 90.34 -53 89.68 -53 89 C-49.14896699 89.53675903 -47.68202413 91.11600923 -45.25 94.0625 C-44.32960937 95.16271484 -44.32960937 95.16271484 -43.390625 96.28515625 C-42.93171875 96.85105469 -42.4728125 97.41695313 -42 98 C-32.97702961 90.48952414 -24.79228537 82.09205895 -16.47265625 73.82275391 C-14.48339819 71.846939 -12.4870758 69.87869045 -10.484375 67.91650391 C-7.59008571 65.08072437 -4.71629154 62.22499725 -1.84375 59.3671875 C-0.94184937 58.48795624 -0.03994873 57.60872498 0.88928223 56.70285034 C2.11681213 55.47104538 2.11681213 55.47104538 3.36914062 54.21435547 C4.09637329 53.49520966 4.82360596 52.77606384 5.57287598 52.03512573 C7.23999704 50.12309456 7.23999704 50.12309456 6.81066895 47.88674927 C5.76702567 45.45777601 4.47201232 43.29911001 3.0625 41.0625 C-3.45125009 30.70771792 -4.9708372 17.92605917 -2.328125 5.95703125 C-1.5 3.5 -1.5 3.5 0 0 Z " fill="#9865FF" transform="translate(283,210)"/>
<path d="M0 0 C3.41099799 1.93992445 6.81138118 3.88775444 10.18359375 5.89453125 C25.45522793 14.89617877 41.4961639 21.70516026 59 25 C59.88042969 25.185625 60.76085937 25.37125 61.66796875 25.5625 C77.13125088 28.44311142 93.40161516 27.36060678 109 26 C109 27.32 109 28.64 109 30 C80.36994962 39.54335013 43.37066349 29.03376872 17.44677734 16.25878906 C13.46069851 14.20807838 9.5822129 12.01214176 5.75 9.6875 C5.06413818 9.27927002 4.37827637 8.87104004 3.67163086 8.45043945 C1.796875 7.26171875 1.796875 7.26171875 -1 5 C-1 1 -1 1 0 0 Z " fill="#EDFAFB" transform="translate(239,344)"/>
<path d="M0 0 C19.9060957 0.6984595 39.9200747 14.21741198 53.25 28.25 C71.16848524 48.93188799 78.55266259 72.85054716 77.22314453 99.97021484 C76.01794937 116.3339697 70.56065563 131.61508211 61 145 C60.34 145 59.68 145 59 145 C59.60500756 140.31344887 61.63189146 136.55276529 63.8125 132.4375 C74.36864951 111.93660639 76.89920752 87.46207788 70.1328125 65.19921875 C69.75898438 64.14347656 69.38515625 63.08773437 69 62 C68.53207031 60.61748047 68.53207031 60.61748047 68.0546875 59.20703125 C60.43201448 38.54894681 45.06516606 20.63056686 25.10205078 11.09326172 C16.9642777 7.48502346 8.47972687 4.6844573 0 2 C0 1.34 0 0.68 0 0 Z " fill="#1CC6CE" transform="translate(340,137)"/>
<path d="M0 0 C1.65 0 3.3 0 5 0 C5 0.99 5 1.98 5 3 C6.0621875 2.98839844 7.124375 2.97679688 8.21875 2.96484375 C22.15671621 2.8594527 22.15671621 2.8594527 29 4 C29 4.99 29 5.98 29 7 C23.72 6.67 18.44 6.34 13 6 C13 29.76 13 53.52 13 78 C16.3 78 19.6 78 23 78 C30.91769199 79.69267114 38.00018894 84.73020397 44 90 C44 90.66 44 91.32 44 92 C40.67523356 91.38126544 38.59385386 90.16895253 35.875 88.1875 C24.66351251 80.65875031 13.75393771 79.13104822 0.5546875 81.66015625 C-5.727566 83.51591144 -10.30773113 86.32448715 -15.16015625 90.70703125 C-15.76730469 91.13371094 -16.37445313 91.56039062 -17 92 C-17.99 91.67 -18.98 91.34 -20 91 C-10.51297501 81.80447578 -2.32675497 78 11 78 C11 54.24 11 30.48 11 6 C9.02 6 7.04 6 5 6 C5 9.96 5 13.92 5 18 C3.35 18 1.7 18 0 18 C0 14.37 0 10.74 0 7 C-1.32 7 -2.64 7 -4 7 C-4 6.01 -4 5.02 -4 4 C-2.68 4 -1.36 4 0 4 C0 2.68 0 1.36 0 0 Z " fill="#894EFF" transform="translate(312,107)"/>
<path d="M0 0 C3.85473819 3.85473819 4.2673685 8.67287901 4.38037109 13.96289062 C4.35156507 25.55862363 2.38059407 34.72166182 -4.92578125 44.0625 C-6.17937352 45.89882397 -6.17937352 45.89882397 -5.84388733 47.82305908 C-4.67542479 50.83729312 -2.86508927 52.49383144 -0.57202148 54.76855469 C-0.11345764 55.22755661 0.3451062 55.68655853 0.81756592 56.1594696 C2.33100888 57.670827 3.85479014 59.17128789 5.37890625 60.671875 C6.43188162 61.7192536 7.48419543 62.76729769 8.53587341 63.815979 C11.30269969 66.57136295 14.0784171 69.31761824 16.8560791 72.06207275 C19.69007411 74.86535382 22.51557253 77.67716993 25.34179688 80.48828125 C30.88624795 86.00057896 36.44011909 91.50326105 42 97 C43.11677492 96.05052441 44.23244654 95.09975103 45.34765625 94.1484375 C45.96906494 93.61911621 46.59047363 93.08979492 47.23071289 92.54443359 C49.2481965 90.78334607 51.14412108 88.93011408 53 87 C53 91.90794949 51.27346816 93.42269241 48.0625 96.75 C47.56685547 97.2749707 47.07121094 97.79994141 46.56054688 98.34082031 C37.53638115 107.78673002 37.53638115 107.78673002 33 111 C32.01 111 31.02 111 30 111 C31.16290805 107.51127585 32.13967609 106.90023136 35.0625 104.8125 C35.79597656 104.28269531 36.52945313 103.75289063 37.28515625 103.20703125 C37.85105469 102.80871094 38.41695313 102.41039062 39 102 C38.46602951 97.92925515 36.42786346 96.06444055 33.57202148 93.23144531 C33.11345764 92.77244339 32.6548938 92.31344147 32.18243408 91.8405304 C30.66899112 90.329173 29.14520986 88.82871211 27.62109375 87.328125 C26.56811838 86.2807464 25.51580457 85.23270231 24.46412659 84.184021 C21.69730031 81.42863705 18.9215829 78.68238176 16.1439209 75.93792725 C13.30992589 73.13464618 10.48442747 70.32283007 7.65820312 67.51171875 C2.11375205 61.99942104 -3.44011909 56.49673895 -9 51 C-11.59463105 52.29458336 -14.17779676 53.60673049 -16.75 54.9453125 C-18.16655618 55.67209039 -19.58322606 56.3986467 -21 57.125 C-21.7115625 57.49753906 -22.423125 57.87007813 -23.15625 58.25390625 C-23.8471875 58.60582031 -24.538125 58.95773437 -25.25 59.3203125 C-25.87390625 59.64273926 -26.4978125 59.96516602 -27.140625 60.29736328 C-29 61 -29 61 -33 61 C-32.67 60.01 -32.34 59.02 -32 58 C-29.8125 57.04296875 -29.8125 57.04296875 -27 56.1875 C-17.10959803 52.7924786 -8.88581176 47.04303382 -3.75 37.734375 C-2.72434862 35.51715804 -1.83630284 33.29457966 -1 31 C-0.5875 29.948125 -0.175 28.89625 0.25 27.8125 C2.04279352 18.69913294 1.26908078 9.92505105 -1 1 C-0.67 0.67 -0.34 0.34 0 0 Z " fill="#9B68FF" transform="translate(364,211)"/>
<path d="M0 0 C3.75795556 1.30275793 6.89840149 3.14110514 10.2121582 5.32543945 C26.54997066 16.07394714 43.83047765 22.36506063 63 26 C63.495 27.485 63.495 27.485 64 29 C47.36064653 27.64168543 31.63967401 21.11479144 17 13.4375 C16.30600098 13.07374268 15.61200195 12.70998535 14.89697266 12.33520508 C10.32718685 9.87374475 6.17075618 7.09005243 2 4 C1.01 4.495 1.01 4.495 0 5 C0 5.66 0 6.32 0 7 C17.30710795 19.62470546 38.08881365 27.96665329 59 32 C59.90065186 32.18240234 60.80130371 32.36480469 61.72924805 32.55273438 C71.75709429 34.36188601 81.66559687 34.22613509 91.8125 34.125 C93.58397928 34.11494307 95.35546412 34.10582205 97.12695312 34.09765625 C101.41810921 34.07587386 105.70899114 34.04149603 110 34 C104.63456868 39.36543132 92.4643061 37.24403218 85.125 37.25 C84.38323517 37.25067474 83.64147034 37.25134949 82.87722778 37.25204468 C71.96241924 37.23624559 61.59979412 36.84412579 51 34 C50.34902344 33.82839355 49.69804687 33.65678711 49.02734375 33.47998047 C30.6921618 28.53848996 9.77115002 20.42687127 -4 7 C-2.92598892 4.08482708 -2.22189824 2.22189824 0 0 Z " fill="#1AC6CE" transform="translate(238,341)"/>
<path d="M0 0 C0 0.66 0 1.32 0 2 C-0.56283691 2.17015625 -1.12567383 2.3403125 -1.70556641 2.515625 C-18.15542341 7.55752126 -31.97560986 13.41538088 -45 25 C-46.13695312 25.99580078 -46.13695312 25.99580078 -47.296875 27.01171875 C-57.22227158 36.26971797 -64.08871006 48.44560839 -69 61 C-69.62068359 62.54880859 -69.62068359 62.54880859 -70.25390625 64.12890625 C-73.17381777 72.90898862 -73.38285919 81.43139296 -73.4375 90.625 C-73.44765137 91.83994141 -73.45780273 93.05488281 -73.46826172 94.30664062 C-73.31006932 110.76756203 -68.45897283 125.62884713 -60.13671875 139.7578125 C-59 142 -59 142 -59 145 C-59.66 145 -60.32 145 -61 145 C-69.11884469 134.38681146 -73.60136528 120.97678641 -76 108 C-76.18175781 107.11699219 -76.36351562 106.23398438 -76.55078125 105.32421875 C-79.9416794 80.23157244 -74.36853159 56.78225835 -59.375 36.4375 C-57.92802112 34.61592253 -56.47116148 32.80210329 -55 31 C-54.53464844 30.3709375 -54.06929687 29.741875 -53.58984375 29.09375 C-42.60429188 14.84948703 -18.51027006 -0.7768909 0 0 Z " fill="#21C7CF" transform="translate(308,137)"/>
<path d="M0 0 C1.30976403 2.15725841 2.04565254 3.46462019 1.828125 6.015625 C1 8 1 8 -0.86328125 9.125 C-1.67152344 9.41375 -2.47976563 9.7025 -3.3125 10 C-4.2303125 10.32871094 -5.148125 10.65742188 -6.09375 10.99609375 C-7.53234375 11.49302734 -7.53234375 11.49302734 -9 12 C-9.8559375 12.34160156 -10.711875 12.68320312 -11.59375 13.03515625 C-18.17392024 15.52162863 -24.75528821 16.74635868 -31.6875 17.75 C-32.56639893 17.87769775 -33.44529785 18.00539551 -34.35083008 18.13696289 C-39.94826775 18.88535656 -45.35380553 19.11441124 -51 19 C-51 16.03 -51 13.06 -51 10 C-49.00839844 9.81824219 -49.00839844 9.81824219 -46.9765625 9.6328125 C-33.13361529 8.33507712 -20.6756035 6.40210803 -7.6875 1.3125 C-4 0 -4 0 0 0 Z " fill="#9965FF" transform="translate(374,331)"/>
<path d="M0 0 C16.40942033 7.54117135 31.82717779 17.48293168 43 32 C41.84826645 34.46800047 40.95216435 36.04783565 39 38 C36.46725159 37.79063975 35.30572164 37.30492549 33.5 35.50390625 C33.005 34.86324219 32.51 34.22257812 32 33.5625 C22.50988179 22.33052465 10.047991 14.5239955 -3 8 C-2.45276317 4.62537285 -1.9451 2.91765 0 0 Z " fill="#945FFF" transform="translate(374,118)"/>
<path d="M0 0 C0.33 0 0.66 0 1 0 C1.01458252 0.74870361 1.02916504 1.49740723 1.04418945 2.26879883 C1.79543713 36.93503019 6.68502529 70.30832925 28.48046875 98.6015625 C28.98191406 99.39304687 29.48335937 100.18453125 30 101 C28.85900474 104.42298577 27.99914379 105.14758766 25 107 C24.01 107 23.02 107 22 107 C20.27398647 104.8662426 18.79182345 102.79782948 17.3125 100.5 C16.87550781 99.83307129 16.43851563 99.16614258 15.98828125 98.47900391 C11.38223861 91.29377824 7.56667243 83.74527396 4 76 C3.5771875 75.08476562 3.154375 74.16953125 2.71875 73.2265625 C2 71 2 71 3 68 C6.32597533 71.86106916 8.1113378 76.40262331 10.1875 81 C13.81977102 88.88435524 17.8583064 95.98095778 23 103 C24.485 102.505 24.485 102.505 26 102 C25.5875 101.3915625 25.175 100.783125 24.75 100.15625 C16.25069775 87.25552338 10.03771126 73.57451057 5 59 C4.69320312 58.1440625 4.38640625 57.288125 4.0703125 56.40625 C-1.78636915 38.77582689 -3.17010725 18.27924746 0 0 Z " fill="#19C5CE" transform="translate(182,212)"/>
<path d="M0 0 C0.33 0 0.66 0 1 0 C2.4620037 20.46805178 -8.74181864 42.78224828 -20.03955078 59.21679688 C-21.09331611 60.7677643 -22.05625711 62.3797313 -23 64 C-22.67 64.99 -22.34 65.98 -22 67 C-18.3468457 63.73442641 -16.03042202 59.99667428 -13.6875 55.75 C-13.29723633 55.04689697 -12.90697266 54.34379395 -12.50488281 53.61938477 C-5.32899069 40.46114175 1.37347928 25.83704789 4 11 C4.66 11.66 5.32 12.32 6 13 C5.10315451 33.17902342 -7.92894734 55.45217166 -20 71 C-23.38005327 69.55140574 -25.4587228 67.62669829 -28 65 C-27.61070312 64.49855469 -27.22140625 63.99710937 -26.8203125 63.48046875 C-14.03979408 46.19437586 -5.70247869 25.88171404 -1.41210938 4.86181641 C-1 3 -1 3 0 0 Z " fill="#28C9D1" transform="translate(464,248)"/>
<path d="M0 0 C0.66 0 1.32 0 2 0 C1.42030435 4.58925721 0.13814377 8.22810732 -1.75 12.4375 C-6.04183047 22.51436845 -7.99606817 33.27512085 -10 44 C-10.18103271 44.95229492 -10.36206543 45.90458984 -10.54858398 46.88574219 C-11.42584381 52.93783863 -11.24487234 59.08158722 -11.25 65.1875 C-11.25067474 65.90486328 -11.25134949 66.62222656 -11.25204468 67.36132812 C-11.22873579 82.96216352 -9.68818355 97.32194428 -4.53833008 112.10546875 C-3.97784803 113.72121194 -3.48267399 115.35933184 -3 117 C-4 119 -4 119 -6 120 C-18.4189272 79.45441159 -19.25612636 38.68266093 0 0 Z " fill="#1AC4CD" transform="translate(189,162)"/>
<path d="M0 0 C1.32 0.66 2.64 1.32 4 2 C0.23174019 6.07926782 -3.65267154 8.95175245 -8.4375 11.75 C-9.16541748 12.17611572 -9.89333496 12.60223145 -10.64331055 13.04125977 C-24.52357529 20.90582329 -41.72484707 29.35483618 -58 29 C-58 27.68 -58 26.36 -58 25 C-57.45698242 24.87471924 -56.91396484 24.74943848 -56.35449219 24.62036133 C-41.94442538 21.25872387 -29.33690881 16.8187231 -16.1875 10 C-15.38626709 9.58468018 -14.58503418 9.16936035 -13.75952148 8.74145508 C-8.8767326 6.15267586 -4.42695988 3.30987654 0 0 Z " fill="#EEFAFB" transform="translate(408,344)"/>
<path d="M0 0 C3.63470686 1.35602525 7.03359912 3.02162304 10.46948242 4.81811523 C32.78501692 16.43335496 56.86189939 18.45823224 81 11 C88.61154825 8.56071498 95.36884416 5.49356607 102.07421875 1.13671875 C104 0 104 0 106 0 C105.31167132 2.3134054 104.46877094 3.68841995 102.44775391 5.03173828 C100.4266092 6.10083799 98.38340932 7.09333685 96.3125 8.0625 C95.61705078 8.40087891 94.92160156 8.73925781 94.20507812 9.08789062 C72.76085347 19.43958451 49.02586632 22.7421872 26.02197266 15.36572266 C4.21422428 7.73274063 4.21422428 7.73274063 0.70703125 1.8203125 C0.47371094 1.21960938 0.24039062 0.61890625 0 0 Z " fill="#1BC6CE" transform="translate(271,303)"/>
<path d="M0 0 C1.32 0 2.64 0 4 0 C3.47002984 7.0185237 1.95772136 13.12090862 -0.375 19.75 C-0.89586182 21.23705444 -0.89586182 21.23705444 -1.42724609 22.75415039 C-6.40640945 36.44196384 -12.91728915 49.57062614 -22 61 C-22.99 60.34 -23.98 59.68 -25 59 C-23.75752118 55.51199956 -22.14441074 52.54863566 -20.1315918 49.44726562 C-10.53509164 34.52351738 -3.72222573 17.33334964 0 0 Z " fill="#EFFBFB" transform="translate(465,255)"/>
<path d="M0 0 C13.86 0 27.72 0 42 0 C40.45702015 3.85744961 38.84759512 7.29509841 36.8828125 10.9296875 C35.97208984 12.61771484 35.97208984 12.61771484 35.04296875 14.33984375 C34.72763184 14.9210498 34.41229492 15.50225586 34.08740234 16.10107422 C33.132342 17.86146702 32.18138858 19.62408591 31.23046875 21.38671875 C28.21653773 26.96217254 25.18064002 32.51779132 22 38 C21.34 38 20.68 38 20 38 C19.39414062 36.83726562 18.78828125 35.67453125 18.1640625 34.4765625 C13.25402223 25.08524604 8.25791157 15.7555479 3.04931641 6.52587891 C0 1.10091801 0 1.10091801 0 0 Z M4 2 C5.57751136 5.94377839 7.24390896 9.4592138 9.2578125 13.17578125 C10.19560547 14.91118164 10.19560547 14.91118164 11.15234375 16.68164062 C11.80983705 17.89195902 12.46738988 19.10224507 13.125 20.3125 C13.79061287 21.54218334 14.45597998 22.77199975 15.12109375 24.00195312 C16.74498376 27.00261946 18.37136671 30.00190626 20 33 C20.66 33 21.32 33 22 33 C22.56714722 31.94872925 22.56714722 31.94872925 23.14575195 30.8762207 C24.86680587 27.68766688 26.58963471 24.50007542 28.3125 21.3125 C29.20485352 19.65831055 29.20485352 19.65831055 30.11523438 17.97070312 C30.69208984 16.90400391 31.26894531 15.83730469 31.86328125 14.73828125 C32.39219971 13.75899658 32.92111816 12.77971191 33.46606445 11.77075195 C34.49644607 9.90957083 35.57448526 8.0740591 36.69604492 6.26635742 C38.16623364 4.14685922 38.16623364 4.14685922 38 2 C26.78 2 15.56 2 4 2 Z " fill="#9560FF" transform="translate(303,214)"/>
<path d="M0 0 C-2.3161624 2.62348492 -4.46983894 3.79457353 -7.6875 5.125 C-20.55368203 10.81875295 -32.26739767 17.90687126 -43 27 C-43.54253418 27.45745605 -44.08506836 27.91491211 -44.64404297 28.38623047 C-59.64875113 41.20779541 -70.33944608 56.90492584 -80 74 C-80.66 73.67 -81.32 73.34 -82 73 C-73.34538545 43.22453854 -41.83012854 19.36568577 -16.08276367 5.08935547 C-5.0952994 -0.65745799 -5.0952994 -0.65745799 0 0 Z " fill="#1BC6CE" transform="translate(272,89)"/>
<path d="M0 0 C0.99 0.33 1.98 0.66 3 1 C1.78192854 4.65421437 0.47975624 5.39767965 -2.5625 7.6875 C-16.51290085 18.63441512 -26.05225183 31.74295596 -33.18334961 47.91723633 C-33.5263208 48.69478271 -33.86929199 49.4723291 -34.22265625 50.2734375 C-34.66750366 51.31636963 -34.66750366 51.31636963 -35.12133789 52.38037109 C-36 54 -36 54 -38 55 C-38.66 54.67 -39.32 54.34 -40 54 C-37.08952501 33.02032615 -17.31359889 13.9576606 -2 1 C-1.34 0.67 -0.68 0.34 0 0 Z " fill="#F6F1FF" transform="translate(253,133)"/>
<path d="M0 0 C1.32 0 2.64 0 4 0 C4 2.97 4 5.94 4 9 C17.53 9 31.06 9 45 9 C45 10.32 45 11.64 45 13 C31.47 13 17.94 13 4 13 C4 15.31 4 17.62 4 20 C2.68 20 1.36 20 0 20 C0 13.4 0 6.8 0 0 Z " fill="#02C0C9" transform="translate(267,31)"/>
<path d="M0 0 C0.99 1.32 1.98 2.64 3 4 C2.23558594 4.62003906 1.47117188 5.24007812 0.68359375 5.87890625 C-11.91420234 16.23598762 -24.05398925 27.25229658 -33 41 C-34.32 40.34 -35.64 39.68 -37 39 C-28.13497937 23.40979131 -14.57376937 10.28736662 0 0 Z " fill="#E4ECFB" transform="translate(239,107)"/>
<path d="M0 0 C1.32 0 2.64 0 4 0 C4 6.27 4 12.54 4 19 C2.68 19 1.36 19 0 19 C0 16.69 0 14.38 0 12 C-13.53 12 -27.06 12 -41 12 C-41 10.68 -41 9.36 -41 8 C-27.47 8 -13.94 8 0 8 C0 5.36 0 2.72 0 0 Z " fill="#01C0C9" transform="translate(358,32)"/>
<path d="M0 0 C19.98355081 0.70117722 40.06048792 14.29461919 53.375 28.4375 C57.75984501 33.48976005 62.24378167 38.86069779 65 45 C64.67578125 47.31640625 64.67578125 47.31640625 64 49 C63.52691406 48.24976563 63.05382812 47.49953125 62.56640625 46.7265625 C49.14374368 25.9515253 32.28352448 12.88397823 9 5 C8.00484375 4.65839844 7.0096875 4.31679687 5.984375 3.96484375 C3.99539036 3.29246687 1.99884072 2.64248452 0 2 C0 1.34 0 0.68 0 0 Z " fill="#1BC6CE" transform="translate(340,137)"/>
<path d="M0 0 C28.38 0 56.76 0 86 0 C85.67 0.66 85.34 1.32 85 2 C57.61 2 30.22 2 2 2 C11.72273228 20.15771652 11.72273228 20.15771652 22 38 C21.34 39.32 20.68 40.64 20 42 C19.61255615 41.27522461 19.2251123 40.55044922 18.82592773 39.80371094 C17.35342736 37.05177475 15.8788906 34.30094141 14.40307617 31.55078125 C13.46446629 29.80029162 12.52809814 28.04860055 11.59179688 26.296875 C7.98072298 19.5714887 4.24159927 12.99262972 0.17211914 6.53222656 C-1 4 -1 4 0 0 Z " fill="#4AD1D9" transform="translate(281,201)"/>
<path d="M0 0 C0 0.66 0 1.32 0 2 C-0.56283691 2.17015625 -1.12567383 2.3403125 -1.70556641 2.515625 C-18.15542341 7.55752126 -31.97560986 13.41538088 -45 25 C-46.13695312 25.99580078 -46.13695312 25.99580078 -47.296875 27.01171875 C-52.58074926 31.94029801 -56.39948833 37.31353612 -60.08227539 43.47900391 C-61.00832761 45.01502938 -61.99875671 46.51189422 -63 48 C-63.66 48 -64.32 48 -65 48 C-64.22926887 41.10132468 -59.16142611 36.25098869 -55 31 C-54.525625 30.35675781 -54.05125 29.71351563 -53.5625 29.05078125 C-42.54789345 14.83505467 -18.51082225 -0.77691407 0 0 Z " fill="#1EC7CF" transform="translate(308,137)"/>
<path d="M0 0 C0 2.97 0 5.94 0 9 C-1.423125 9.33773437 -2.84625 9.67546875 -4.3125 10.0234375 C-6.20833913 10.47393393 -8.10417214 10.92445613 -10 11.375 C-10.93457031 11.59671875 -11.86914062 11.8184375 -12.83203125 12.046875 C-18.23038958 13.33040076 -23.6198169 14.64226511 -29 16 C-29.33 15.01 -29.66 14.02 -30 13 C-9.80904523 6.65954774 -9.80904523 6.65954774 -3 7 C-3 5.68 -3 4.36 -3 3 C-5.98067651 3.59734819 -8.95937099 4.20268207 -11.9375 4.8125 C-12.76830078 4.97814453 -13.59910156 5.14378906 -14.45507812 5.31445312 C-19.5079377 6.35648253 -24.2054332 7.68214781 -28.99438477 9.6159668 C-31.61007324 10.11681621 -32.78164425 9.37166932 -35 8 C-28.71208772 5.49549257 -22.36046358 3.44227389 -15.8125 1.75 C-15.16023438 1.57500977 -14.50796875 1.40001953 -13.8359375 1.21972656 C-9.08234667 0.03132885 -4.85582965 -0.1512383 0 0 Z " fill="#33CCD3" transform="translate(305,80)"/>
<path d="M0 0 C3.85473819 3.85473819 4.2673685 8.67287901 4.38037109 13.96289062 C4.35185146 25.44333871 2.35776514 34.56559558 -4.6328125 43.96484375 C-6.13122629 46.00770656 -6.13122629 46.00770656 -6.9296875 48.69140625 C-7.28289062 49.45324219 -7.63609375 50.21507812 -8 51 C-9.89453125 51.66796875 -9.89453125 51.66796875 -12 52 C-13.85867871 53.04124927 -13.85867871 53.04124927 -15.6875 54.3125 C-21.14638949 57.82251493 -26.41425123 61 -33 61 C-32.67 60.01 -32.34 59.02 -32 58 C-29.8125 57.04296875 -29.8125 57.04296875 -27 56.1875 C-17.10959803 52.7924786 -8.88581176 47.04303382 -3.75 37.734375 C-2.72434862 35.51715804 -1.83630284 33.29457966 -1 31 C-0.5875 29.948125 -0.175 28.89625 0.25 27.8125 C2.04279352 18.69913294 1.26908078 9.92505105 -1 1 C-0.67 0.67 -0.34 0.34 0 0 Z " fill="#935DFE" transform="translate(364,211)"/>
<path d="M0 0 C15.25997667 7.03077459 27.33585664 17.0289055 39 29 C38.505 30.485 38.505 30.485 38 32 C34.37111321 30.4893322 32.2805677 28.36402524 29.625 25.5 C20.75654743 16.46175379 10.29379186 9.66994449 -1 4 C-0.67 2.68 -0.34 1.36 0 0 Z " fill="#F6F3FF" transform="translate(375,121)"/>
<path d="M0 0 C0 0.66 0 1.32 0 2 C-13.45196976 7.53504321 -27.22654654 12.21415931 -41.9375 12.0625 C-43.08089844 12.05347656 -44.22429687 12.04445313 -45.40234375 12.03515625 C-46.25957031 12.02355469 -47.11679687 12.01195312 -48 12 C-48 11.01 -48 10.02 -48 9 C-46.98015015 8.88724731 -46.98015015 8.88724731 -45.93969727 8.7722168 C-42.81274107 8.42070324 -39.68770952 8.05420585 -36.5625 7.6875 C-35.49322266 7.56955078 -34.42394531 7.45160156 -33.32226562 7.33007812 C-26.87423806 6.56104731 -21.05153121 5.35792852 -15 3 C-13.96230469 2.60296875 -12.92460937 2.2059375 -11.85546875 1.796875 C-10.06199147 1.09313867 -8.27034302 0.38472536 -6.48046875 -0.328125 C-3.83459754 -1.04480193 -2.54180759 -0.92429367 0 0 Z " fill="#F7F3FF" transform="translate(373,335)"/>
<path d="M0 0 C0 0.66 0 1.32 0 2 C-1.32 2 -2.64 2 -4 2 C-4 3.32 -4 4.64 -4 6 C-3.01 6.33 -2.02 6.66 -1 7 C-0.34 7.66 0.32 8.32 1 9 C-5.625 9.25 -5.625 9.25 -9 7 C-8.01 7 -7.02 7 -6 7 C-6 5.68 -6 4.36 -6 3 C-6.82757813 3.144375 -7.65515625 3.28875 -8.5078125 3.4375 C-23.70727488 5.8011313 -40.26759887 7.22161053 -55 2 C-55 1.67 -55 1.34 -55 1 C-53.32212402 1.01571045 -53.32212402 1.01571045 -51.61035156 1.03173828 C-47.4057951 1.06831403 -43.20125229 1.09103528 -38.99658203 1.10986328 C-37.18698755 1.11983616 -35.37740882 1.13341932 -33.56787109 1.15087891 C-19.85371537 1.29381656 -19.85371537 1.29381656 -6.30371094 -0.66455078 C-3.87240727 -1.0185791 -2.31424167 -0.76494454 0 0 Z " fill="#1FC4CF" transform="translate(354,367)"/>
<path d="M0 0 C2.88978674 3.22995865 3.37546967 5.33400139 3.40625 9.62890625 C3.4259082 10.73709717 3.44556641 11.84528809 3.46582031 12.98706055 C3.47709961 14.16695557 3.48837891 15.34685059 3.5 16.5625 C3.87403261 32.03039272 5.35049124 46.44484164 10.46191406 61.10424805 C11.02199983 62.72051366 11.51722334 64.35898284 12 66 C11 68 11 68 9 69 C3.40186961 50.72309999 -0.18198108 33.69813042 -0.0625 14.5 C-0.05747533 13.09114742 -0.05291413 11.68229311 -0.04882812 10.2734375 C-0.0371003 6.84891362 -0.02068691 3.42447953 0 0 Z " fill="#41D0D6" transform="translate(174,213)"/>
<path d="M0 0 C3.63414962 1.35581736 7.03269921 3.0205511 10.4675293 4.81787109 C26.41446254 13.11219193 42.15560842 15.89020151 60 17 C60 17.33 60 17.66 60 18 C39.30945428 18.39327331 19.42527141 16.53569431 2 4 C0.70703125 1.8203125 0.70703125 1.8203125 0 0 Z " fill="#14C3CC" transform="translate(271,303)"/>
<path d="M0 0 C1.92602539 0.23022461 1.92602539 0.23022461 4 1 C5.65099182 3.5074992 7.05947522 5.91224776 8.4375 8.5625 C9.22518984 10.02287663 10.01423969 11.48252057 10.8046875 12.94140625 C11.18077148 13.64281738 11.55685547 14.34422852 11.94433594 15.06689453 C13.80825153 18.48004986 15.89118893 21.73474415 18 25 C16.02 25.99 16.02 25.99 14 27 C7.77095161 18.90223709 3.38145856 10.17261195 -1 1 C-0.67 0.67 -0.34 0.34 0 0 Z " fill="#E8EFFB" transform="translate(191,289)"/>
<path d="M0 0 C1.65 0 3.3 0 5 0 C5 0.99 5 1.98 5 3 C10.28 3 15.56 3 21 3 C21 3.33 21 3.66 21 4 C17.7 4.33 14.4 4.66 11 5 C11 5.33 11 5.66 11 6 C9.02 6 7.04 6 5 6 C5 9.96 5 13.92 5 18 C3.35 18 1.7 18 0 18 C0 14.37 0 10.74 0 7 C-1.32 7 -2.64 7 -4 7 C-4 6.01 -4 5.02 -4 4 C-2.68 4 -1.36 4 0 4 C0 2.68 0 1.36 0 0 Z " fill="#9A67FF" transform="translate(312,107)"/>
<path d="M0 0 C2.79106619 3.33100459 4.41979807 6.93176483 6 10.9375 C6.26055176 11.5962915 6.52110352 12.25508301 6.78955078 12.93383789 C10.16165252 21.72260212 12.55688426 30.53296755 12 40 C11.67 40 11.34 40 11 40 C10.67 45.28 10.34 50.56 10 56 C9.67 56 9.34 56 9 56 C8.9906543 55.35675781 8.98130859 54.71351563 8.97167969 54.05078125 C8.6568404 36.74079366 6.94585743 22.01134272 0 6 C-1 3 -1 3 0 0 Z " fill="#28C9D1" transform="translate(405,183)"/>
<path d="M0 0 C13.86 0 27.72 0 42 0 C40 5 40 5 38 6 C38 4.68 38 3.36 38 2 C26.78 2 15.56 2 4 2 C4.66 3.32 5.32 4.64 6 6 C5.67 7.32 5.34 8.64 5 10 C3.35 6.7 1.7 3.4 0 0 Z " fill="#8D54FF" transform="translate(303,214)"/>
<path d="M0 0 C0.99 0 1.98 0 3 0 C3 11.55 3 23.1 3 35 C2.01 35 1.02 35 0 35 C0 23.45 0 11.9 0 0 Z " fill="#894EFE" transform="translate(313,24)"/>
<path d="M0 0 C0.33 0 0.66 0 1 0 C1.19399092 4.67686794 1.37241497 9.35399101 1.53710938 14.03198242 C1.59512015 15.61970512 1.65721057 17.20728468 1.72363281 18.79467773 C2.39772035 35.02895258 2.39772035 35.02895258 0 43 C-0.66 43 -1.32 43 -2 43 C-2 41.02 -2 39.04 -2 37 C-3.32 37 -4.64 37 -6 37 C-8.14699969 33.55824478 -8.09856795 31.2279708 -7.625 27.25 C-7.51414062 26.26515625 -7.40328125 25.2803125 -7.2890625 24.265625 C-7.14597656 23.14414063 -7.14597656 23.14414063 -7 22 C-6.67 22 -6.34 22 -6 22 C-5.01751476 26.0527516 -4.91840426 29.83861737 -5 34 C-4.01 34 -3.02 34 -2 34 C-0.77307623 27.06117901 -0.6624055 20.0935622 -0.4375 13.0625 C-0.37272461 11.17821289 -0.37272461 11.17821289 -0.30664062 9.25585938 C-0.20106381 6.17067032 -0.09895449 3.08540737 0 0 Z " fill="#42CED7" transform="translate(471,218)"/>
<path d="M0 0 C0.66 0.66 1.32 1.32 2 2 C-6.02350304 3.18396883 -13.86455314 4.28545428 -22 4 C-22 5.65 -22 7.3 -22 9 C-19.69 9 -17.38 9 -15 9 C-15 9.33 -15 9.66 -15 10 C-17.97 10 -20.94 10 -24 10 C-24 7.03 -24 4.06 -24 1 C-20.75074502 0.63730641 -17.50093228 0.28453478 -14.25 -0.0625 C-12.86941406 -0.2181543 -12.86941406 -0.2181543 -11.4609375 -0.37695312 C-10.12675781 -0.51713867 -10.12675781 -0.51713867 -8.765625 -0.66015625 C-7.54020996 -0.79369507 -7.54020996 -0.79369507 -6.29003906 -0.92993164 C-3.93551411 -1.00197308 -2.216644 -0.78400009 0 0 Z " fill="#A273FF" transform="translate(347,340)"/>
<path d="M0 0 C1.63344307 2.45016461 2.68053086 4.44431471 3.76953125 7.1328125 C4.26743164 8.34324219 4.26743164 8.34324219 4.77539062 9.578125 C5.45694402 11.25184557 6.13668714 12.92630466 6.81445312 14.6015625 C8.90108002 19.66393563 11.23754397 24.3860354 14.0534668 29.08544922 C15 31 15 31 15 34 C14.34 34 13.68 34 13 34 C5.74020439 24.50978526 0.05542707 12.02767504 0 0 Z " fill="#1FC7CF" transform="translate(234,248)"/>
<path d="M0 0 C0.763125 0.7425 1.52625 1.485 2.3125 2.25 C2.3125 2.91 2.3125 3.57 2.3125 4.25 C-1.01226644 3.63126544 -3.09364614 2.41895253 -5.8125 0.4375 C-15.16271432 -5.88719782 -23.44633287 -7.42604706 -34.6875 -7.75 C-34.6875 -8.08 -34.6875 -8.41 -34.6875 -8.75 C-20.67073249 -10.45297175 -11.37531293 -9.01439892 0 0 Z " fill="#9D6CFF" transform="translate(353.6875,194.75)"/>
<path d="M0 0 C0.66 0 1.32 0 2 0 C0.97279606 2.76554908 -0.08654329 5.1346229 -1.6875 7.625 C-2.120625 8.40875 -2.55375 9.1925 -3 10 C-2.67 10.99 -2.34 11.98 -2 13 C0.46440366 10.71162517 2.27242244 8.58335391 4.125 5.75 C5.053125 4.38875 5.053125 4.38875 6 3 C6.66 3 7.32 3 8 3 C6.6744419 6.62276315 5.05653045 9.63505348 2.875 12.8125 C2.06675781 13.99779297 2.06675781 13.99779297 1.2421875 15.20703125 C0.62730469 16.09455078 0.62730469 16.09455078 0 17 C-3.36591866 15.55746343 -5.51047079 13.66735273 -8 11 C-6.71632558 9.16106176 -5.42283239 7.32897375 -4.125 5.5 C-3.04605469 3.96859375 -3.04605469 3.96859375 -1.9453125 2.40625 C-1.30335938 1.6121875 -0.66140625 0.818125 0 0 Z " fill="#17C5CD" transform="translate(444,302)"/>
<path d="M0 0 C-4.33793783 4.33793783 -12.38920662 3.12979084 -18.16015625 3.13671875 C-19.26230469 3.13285156 -20.36445313 3.12898438 -21.5 3.125 C-23.15322266 3.13080078 -23.15322266 3.13080078 -24.83984375 3.13671875 C-30.33244562 3.13012499 -35.59133331 2.97915518 -41 2 C-41 1.67 -41 1.34 -41 1 C-13.05485809 -0.19388403 -13.05485809 -0.19388403 0 0 Z " fill="#0FC3CC" transform="translate(348,375)"/>
<path d="M0 0 C8.02616194 0.40621064 15.32721195 1.59847776 23 4 C23 4.99 23 5.98 23 7 C16.4 5.68 9.8 4.36 3 3 C2.67 4.98 2.34 6.96 2 9 C1.34 9 0.68 9 0 9 C0 6.03 0 3.06 0 0 Z " fill="#34CCD4" transform="translate(343,80)"/>
<path d="M0 0 C0.33 0 0.66 0 1 0 C1.33 13.2 1.66 26.4 2 40 C-2.12338472 33.81492291 -1.15114045 26.24676827 -1.125 19.0625 C-1.12886719 18.00353516 -1.13273438 16.94457031 -1.13671875 15.85351562 C-1.12999171 10.46179379 -0.9517636 5.31023662 0 0 Z " fill="#0DC2CB" transform="translate(182,212)"/>
<path d="M0 0 C3.02788264 3.02788264 2.96212259 5.95303581 3.11352539 10.13793945 C3.10567017 11.85823364 3.10567017 11.85823364 3.09765625 13.61328125 C3.09443359 14.86044922 3.09121094 16.10761719 3.08789062 17.39257812 C3.07951172 18.68615234 3.07113281 19.97972656 3.0625 21.3125 C3.05798828 22.62541016 3.05347656 23.93832031 3.04882812 25.29101562 C3.03705949 28.5273901 3.0206176 31.76367178 3 35 C2.01 35.495 2.01 35.495 1 36 C0.67 24.12 0.34 12.24 0 0 Z " fill="#1EC6CE" transform="translate(471,207)"/>
<path d="M0 0 C2 3 2 3 1.72265625 5.5078125 C1.48417969 6.66023437 1.24570313 7.81265625 1 9 C0.73859575 10.72506192 0.48829154 12.45182436 0.24609375 14.1796875 C0.11396484 15.1078125 -0.01816406 16.0359375 -0.15429688 16.9921875 C-0.28900391 17.94351563 -0.42371094 18.89484375 -0.5625 19.875 C-0.70107422 20.84953125 -0.83964844 21.8240625 -0.98242188 22.828125 C-1.32225285 25.21866011 -1.66142706 27.60928645 -2 30 C-2.99 30.33 -3.98 30.66 -5 31 C-5.23006484 24.62497752 -4.3903307 18.91314222 -3.0625 12.6875 C-2.88009766 11.79482422 -2.69769531 10.90214844 -2.50976562 9.98242188 C-1.80534288 6.57813888 -1.10048272 3.30144815 0 0 Z " fill="#37CDD4" transform="translate(186,188)"/>
<path d="M0 0 C-0.33 0.66 -0.66 1.32 -1 2 C-11.14429345 4.50514564 -21.63486322 4.22587465 -32 4 C-30.98828125 2.5390625 -30.98828125 2.5390625 -29 1 C-26.3329077 0.64516329 -23.86130131 0.44287528 -21.1875 0.375 C-17.32898864 0.23275073 -13.54632295 0.0920329 -9.73046875 -0.55078125 C-6.3080828 -1.11383473 -3.39361198 -0.61085016 0 0 Z " fill="#49D2D8" transform="translate(347,318)"/>
<path d="M0 0 C16.335 0.495 16.335 0.495 33 1 C33.495 2.485 33.495 2.485 34 4 C10.21122564 4.61916858 10.21122564 4.61916858 0 1 C0 0.67 0 0.34 0 0 Z " fill="#3DCFD6" transform="translate(299,368)"/>
<path d="M0 0 C3.42754467 0.58110671 5.04538661 1.68553624 7.453125 4.16015625 C8.071875 4.78857422 8.690625 5.41699219 9.328125 6.06445312 C9.96234375 6.72380859 10.5965625 7.38316406 11.25 8.0625 C11.8996875 8.72572266 12.549375 9.38894531 13.21875 10.07226562 C14.8194676 11.70829317 16.41276193 13.35090912 18 15 C17.67 15.99 17.34 16.98 17 18 C11.00040771 13.04381506 5.19144551 7.80773381 0 2 C0 1.34 0 0.68 0 0 Z " fill="#9D6BFF" transform="translate(417,322)"/>
<path d="M0 0 C-8 4 -16 8 -24 12 C-24.99 11.34 -25.98 10.68 -27 10 C-5.58409638 -1.73970759 -5.58409638 -1.73970759 0 0 Z " fill="#23C8D0" transform="translate(277,95)"/>
<path d="M0 0 C-1 2 -1 2 -3.40625 2.82421875 C-4.4271875 3.10910156 -5.448125 3.39398438 -6.5 3.6875 C-12.09020702 5.43319039 -15.83720635 7.80269102 -20.16015625 11.70703125 C-20.76730469 12.13371094 -21.37445313 12.56039062 -22 13 C-22.99 12.67 -23.98 12.34 -25 12 C-18.92095507 6.10774137 -9.0261319 -2.80121335 0 0 Z " fill="#915AFE" transform="translate(317,186)"/>
<path d="M0 0 C5.19209404 -0.21192221 9.126739 0.4087311 14 2 C14 2.33 14 2.66 14 3 C18.95 3.33 23.9 3.66 29 4 C29 4.33 29 4.66 29 5 C25.27084983 5.02912348 21.5417291 5.04684037 17.8125 5.0625 C16.22985352 5.07506836 16.22985352 5.07506836 14.61523438 5.08789062 C13.08286133 5.09272461 13.08286133 5.09272461 11.51953125 5.09765625 C10.58214111 5.10289307 9.64475098 5.10812988 8.67895508 5.11352539 C6.01950523 5.00082657 3.59079427 4.59376649 1 4 C0.67 2.68 0.34 1.36 0 0 Z " fill="#DEF6F8" transform="translate(304,371)"/>
<path d="M0 0 C1.02738281 0.21785156 2.05476563 0.43570312 3.11328125 0.66015625 C4.08910156 0.88058594 5.06492187 1.10101563 6.0703125 1.328125 C6.96766113 1.52825195 7.86500977 1.72837891 8.78955078 1.93457031 C9.47774902 2.20366211 10.16594727 2.47275391 10.875 2.75 C11.205 3.74 11.535 4.73 11.875 5.75 C6.45279794 5.30737126 1.31868333 4.19460902 -3.9375 2.8125 C-4.59564697 2.64266602 -5.25379395 2.47283203 -5.93188477 2.29785156 C-9.10910724 1.44057709 -11.35713626 0.59524249 -14.125 -1.25 C-9.29316231 -2.86061256 -4.87037583 -1.11446021 0 0 Z " fill="#29C9D1" transform="translate(290.125,364.25)"/>
<path d="M0 0 C2.39614575 0.14165893 4.79182897 0.28818841 7.1875 0.4375 C7.86103516 0.47681641 8.53457031 0.51613281 9.22851562 0.55664062 C19.55242825 1.21132777 19.55242825 1.21132777 24 5 C15.47919963 4.60271115 7.27950633 4.21772491 -1 2 C-0.67 1.34 -0.34 0.68 0 0 Z " fill="#33CCD3" transform="translate(290,373)"/>
<path d="M0 0 C-0.33 0.66 -0.66 1.32 -1 2 C-9.36005938 4.67654075 -18.34187243 4.21031889 -27 4 C-27 3.34 -27 2.68 -27 2 C-23.81309767 1.66078548 -20.62539896 1.32970583 -17.4375 1 C-16.54224609 0.90460938 -15.64699219 0.80921875 -14.72460938 0.7109375 C-9.78509212 0.20432035 -4.96511986 -0.10897382 0 0 Z " fill="#925CFF" transform="translate(352,345)"/>
<path d="M0 0 C2.01565047 3.52078685 2.82990674 7.05088764 3.6875 11 C3.95949219 12.216875 4.23148437 13.43375 4.51171875 14.6875 C5.20132333 19.36577747 4.19180717 21.90862661 2 26 C1.50018342 22.54495722 1.00443986 19.08943189 0.515625 15.6328125 C0.2219715 13.56389014 -0.07665289 11.495624 -0.390625 9.4296875 C-0.87944939 6.04650817 -1.21880034 3.25013425 0 0 Z " fill="#2FCBD2" transform="translate(468,187)"/>
<path d="M0 0 C0.33 0 0.66 0 1 0 C1.03758423 1.01984985 1.03758423 1.01984985 1.07592773 2.06030273 C1.19305822 5.18617279 1.31524656 8.31182628 1.4375 11.4375 C1.47681641 12.50677734 1.51613281 13.57605469 1.55664062 14.67773438 C1.80126504 20.83097936 2.23534 26.88914575 3 33 C2.01 33 1.02 33 0 33 C-2.37608449 22.3076198 -0.8277832 10.82030901 0 0 Z " fill="#46D1D7" transform="translate(233,218)"/>
<path d="M0 0 C2 2 2 2 2.04345703 4.33837891 C1.94919434 5.29147949 1.85493164 6.24458008 1.7578125 7.2265625 C1.66113281 8.2578125 1.56445312 9.2890625 1.46484375 10.3515625 C1.35269531 11.43179688 1.24054688 12.51203125 1.125 13.625 C1.02058594 14.71296875 0.91617187 15.8009375 0.80859375 16.921875 C0.54866583 19.61567348 0.27873466 22.30809314 0 25 C-0.99 25 -1.98 25 -3 25 C-3.55353075 8.29157175 -3.55353075 8.29157175 0 0 Z " fill="#A982FE" transform="translate(283,210)"/>
<path d="M0 0 C7.26 0 14.52 0 22 0 C21.67 0.99 21.34 1.98 21 3 C14.4 3 7.8 3 1 3 C0.67 2.01 0.34 1.02 0 0 Z " fill="#FDFEFE" transform="translate(313,372)"/>
<path d="M0 0 C-1.39347376 3.15204981 -3.02485079 5.26171773 -5.4765625 7.671875 C-6.48203125 8.66767578 -6.48203125 8.66767578 -7.5078125 9.68359375 C-8.20648438 10.36550781 -8.90515625 11.04742187 -9.625 11.75 C-10.33140625 12.44738281 -11.0378125 13.14476562 -11.765625 13.86328125 C-13.50598703 15.58012488 -15.25084981 17.29211832 -17 19 C-17.66 18.34 -18.32 17.68 -19 17 C-16.21641519 14.15862758 -13.42184273 11.32831845 -10.625 8.5 C-9.43390625 7.28376953 -9.43390625 7.28376953 -8.21875 6.04296875 C-7.45820313 5.27597656 -6.69765625 4.50898438 -5.9140625 3.71875 C-5.2123291 3.00654297 -4.5105957 2.29433594 -3.78759766 1.56054688 C-2 0 -2 0 0 0 Z " fill="#9058FF" transform="translate(232,321)"/>
<path d="M0 0 C2.30232826 3.8038467 2.87840421 7.93802837 3.625 12.25 C3.7590625 12.99507813 3.893125 13.74015625 4.03125 14.5078125 C4.35966676 16.337563 4.6805798 18.16865754 5 20 C4.01 20 3.02 20 2 20 C-0.07979208 12.94985735 -1.53616498 7.26187082 0 0 Z " fill="#2FCBD3" transform="translate(184,248)"/>
<path d="M0 0 C0 4.10640306 -2.11837442 6.36358474 -4.4375 9.5625 C-7.44329397 13.64206765 -7.44329397 13.64206765 -10 18 C-10.66 18 -11.32 18 -12 18 C-11.50723636 13.33171286 -9.37895211 10.34659613 -6.5625 6.75 C-6.15451172 6.20859375 -5.74652344 5.6671875 -5.32617188 5.109375 C-2.287519 1.1437595 -2.287519 1.1437595 0 0 Z " fill="#16C5CD" transform="translate(255,167)"/>
<path d="M0 0 C0.99 0 1.98 0 3 0 C4.3271261 3.9813783 4.06915913 7.85045227 4 12 C3.67 12 3.34 12 3 12 C2.67 17.28 2.34 22.56 2 28 C1.67 28 1.34 28 1 28 C0.67 18.76 0.34 9.52 0 0 Z " fill="#6DDBE0" transform="translate(413,211)"/>
<path d="M0 0 C0 0.66 0 1.32 0 2 C-2.05762909 2.70194375 -4.12136031 3.38601697 -6.1875 4.0625 C-7.91033203 4.63677734 -7.91033203 4.63677734 -9.66796875 5.22265625 C-12.97454508 5.99406151 -14.79082314 5.96093996 -18 5 C-15.23944978 3.15963319 -13.25401883 2.31655886 -10.125 1.375 C-8.86042969 0.98441406 -8.86042969 0.98441406 -7.5703125 0.5859375 C-4.95775542 -0.00963022 -2.66958629 -0.10525251 0 0 Z " fill="#33CCD3" transform="translate(308,137)"/>
<path d="M0 0 C10.88028169 2.97887324 10.88028169 2.97887324 15 6 C15 6.33 15 6.66 15 7 C8.79011871 6.55643705 4.39459439 5.08467498 -1 2 C-0.67 1.34 -0.34 0.68 0 0 Z " fill="#9969FE" transform="translate(303,265)"/>
<path d="M0 0 C-2.62649308 1.75099539 -4.61808587 2.69309325 -7.5625 3.6875 C-8.34753906 3.95949219 -9.13257813 4.23148437 -9.94140625 4.51171875 C-12 5 -12 5 -14 4 C-14.33 3.34 -14.66 2.68 -15 2 C-13.44240657 1.46467177 -11.87861955 0.94734622 -10.3125 0.4375 C-9.44238281 0.14746094 -8.57226562 -0.14257812 -7.67578125 -0.44140625 C-4.75368926 -1.05141961 -2.85599447 -0.77703633 0 0 Z " fill="#9F6FFF" transform="translate(365,342)"/>
<path d="M0 0 C0.33 0 0.66 0 1 0 C1.23433319 5.74116324 1.02996747 10.5867534 -1 16 C-1.66 16.33 -2.32 16.66 -3 17 C-2.88506243 15.10353002 -2.75760358 13.20781668 -2.625 11.3125 C-2.55539062 10.25675781 -2.48578125 9.20101563 -2.4140625 8.11328125 C-2.01239911 5.09322731 -1.25930981 2.75921946 0 0 Z " fill="#1EC6CE" transform="translate(464,248)"/>
<path d="M0 0 C0.99 0.33 1.98 0.66 3 1 C2.57855998 3.1490452 2.13737951 5.29422788 1.6875 7.4375 C1.44386719 8.63246094 1.20023438 9.82742187 0.94921875 11.05859375 C0.63597656 12.02925781 0.32273438 12.99992188 0 14 C-0.99 14.33 -1.98 14.66 -3 15 C-2.44854729 9.76119922 -1.57077907 5.02649303 0 0 Z " fill="#35CCD4" transform="translate(235,199)"/>
<path d="M0 0 C4.30764815 1.56641751 8.06171464 3.68336156 12 6 C11.01 7.485 11.01 7.485 10 9 C6.37 6.69 2.74 4.38 -1 2 C-0.67 1.34 -0.34 0.68 0 0 Z " fill="#24C8D0" transform="translate(244,345)"/>
<path d="M0 0 C0 2.97 0 5.94 0 9 C-2.64 9 -5.28 9 -8 9 C-5 7 -5 7 -2 7 C-2 5.35 -2 3.7 -2 2 C-3.65 2 -5.3 2 -7 2 C-4 0 -4 0 0 0 Z " fill="#12C3CC" transform="translate(305,80)"/>
<path d="M0 0 C0.66 0.66 1.32 1.32 2 2 C-1.3 5.3 -4.6 8.6 -8 12 C-8.66 11.34 -9.32 10.68 -10 10 C-6.7 6.7 -3.4 3.4 0 0 Z " fill="#0BC2CB" transform="translate(228,122)"/>
<path d="M0 0 C5.19209404 -0.21192221 9.126739 0.4087311 14 2 C14 2.99 14 3.98 14 5 C9.16371695 4.00956295 4.52381127 3.04301154 0 1 C0 0.67 0 0.34 0 0 Z " fill="#28C9D1" transform="translate(352,82)"/>
<path d="M0 0 C0.33 0 0.66 0 1 0 C1.98248524 4.0527516 2.08159574 7.83861737 2 12 C2.99 12.33 3.98 12.66 5 13 C5 13.66 5 14.32 5 15 C3.68 15 2.36 15 1 15 C-1.14699969 11.55824478 -1.09856795 9.2279708 -0.625 5.25 C-0.51414062 4.26515625 -0.40328125 3.2803125 -0.2890625 2.265625 C-0.19367188 1.51796875 -0.09828125 0.7703125 0 0 Z " fill="#5EACE4" transform="translate(464,240)"/>
<path d="M0 0 C-1.86977097 2.44710376 -2.82502483 2.96931493 -5.91796875 3.51171875 C-7.53638672 3.59873047 -7.53638672 3.59873047 -9.1875 3.6875 C-10.27417969 3.75324219 -11.36085938 3.81898438 -12.48046875 3.88671875 C-13.72763672 3.94279297 -13.72763672 3.94279297 -15 4 C-10.09731431 0.73154287 -5.86826297 -0.27944109 0 0 Z " fill="#915AFF" transform="translate(359,337)"/>
<path d="M0 0 C1.140625 1.734375 1.140625 1.734375 2 4 C1.171875 6.140625 1.171875 6.140625 -0.25 8.25 C-0.70890625 8.95640625 -1.1678125 9.6628125 -1.640625 10.390625 C-2.08921875 10.92171875 -2.5378125 11.4528125 -3 12 C-3.66 12 -4.32 12 -5 12 C-4.42365861 7.24518354 -2.44931479 4.02951788 0 0 Z " fill="#29CAD1" transform="translate(404,270)"/>
<path d="M0 0 C0 0.99 0 1.98 0 3 C-5.28 2.67 -10.56 2.34 -16 2 C-16 1.67 -16 1.34 -16 1 C-10.59255982 0.22750855 -5.46137814 -0.09752461 0 0 Z " fill="#A172FF" transform="translate(341,111)"/>
<path d="M0 0 C-4.41880243 2.94586829 -6.67767339 3.0985616 -12 3 C-12 2.34 -12 1.68 -12 1 C-7.58774263 -0.47075246 -4.51718381 -1.36884358 0 0 Z " fill="#2CCAD2" transform="translate(357,315)"/>
<path d="M0 0 C3.98671063 1.36687222 6.88494633 3.15195093 10 6 C10 6.66 10 7.32 10 8 C5.60249328 7.49259538 3.13051078 4.91706686 0 2 C0 1.34 0 0.68 0 0 Z " fill="#935EFE" transform="translate(346,191)"/>
<path d="M0 0 C2.97 0 5.94 0 9 0 C9 0.99 9 1.98 9 3 C6.03 3 3.06 3 0 3 C0 2.01 0 1.02 0 0 Z " fill="#A77AFF" transform="translate(437,237)"/>
<path d="M0 0 C2.97 0 5.94 0 9 0 C9 0.99 9 1.98 9 3 C6.03 3 3.06 3 0 3 C0 2.01 0 1.02 0 0 Z " fill="#A375FF" transform="translate(437,227)"/>
<path d="M0 0 C2.97 0 5.94 0 9 0 C9 0.99 9 1.98 9 3 C6.03 3 3.06 3 0 3 C0 2.01 0 1.02 0 0 Z " fill="#A476FF" transform="translate(202,227)"/>
<path d="M0 0 C3.35250701 0.57575664 4.93818629 1.59306263 7.25 4.0625 C8.03117187 4.88427734 8.03117187 4.88427734 8.828125 5.72265625 C9.21484375 6.14417969 9.6015625 6.56570312 10 7 C9.67 7.99 9.34 8.98 9 10 C7.49702124 8.52386015 5.99768715 7.04400843 4.5 5.5625 C3.6646875 4.73878906 2.829375 3.91507813 1.96875 3.06640625 C0 1 0 1 0 0 Z " fill="#8C53FF" transform="translate(400,144)"/>
<path d="M0 0 C2.31 0 4.62 0 7 0 C7 1.32 7 2.64 7 4 C4.69 4.33 2.38 4.66 0 5 C0.66 4.34 1.32 3.68 2 3 C1.34 2.01 0.68 1.02 0 0 Z " fill="#DFF4F8" transform="translate(341,370)"/>
<path d="M0 0 C0.66 0 1.32 0 2 0 C3.32 2.97 4.64 5.94 6 9 C5.01 9.33 4.02 9.66 3 10 C0.96564469 6.27034861 0 4.33094958 0 0 Z " fill="#27C9D1" transform="translate(195,288)"/>
<path d="M0 0 C4.455 0.99 4.455 0.99 9 2 C9 2.99 9 3.98 9 5 C4.545 4.01 4.545 4.01 0 3 C0 2.01 0 1.02 0 0 Z " fill="#A173FF" transform="translate(433,256)"/>
<path d="M0 0 C0 0.99 0 1.98 0 3 C-4.455 3.495 -4.455 3.495 -9 4 C-9 3.01 -9 2.02 -9 1 C-5.846632 0.29925156 -3.27275026 0 0 0 Z " fill="#A375FF" transform="translate(213,247)"/>
<path d="M0 0 C2.97 0.33 5.94 0.66 9 1 C9 1.99 9 2.98 9 4 C6.03 3.67 3.06 3.34 0 3 C0 2.01 0 1.02 0 0 Z " fill="#A274FF" transform="translate(204,206)"/>
<path d="M0 0 C0 0.99 0 1.98 0 3 C-4.455 3.495 -4.455 3.495 -9 4 C-9 3.01 -9 2.02 -9 1 C-5.846632 0.29925156 -3.27275026 0 0 0 Z " fill="#A375FF" transform="translate(444,206)"/>
<path d="M0 0 C4.455 0.99 4.455 0.99 9 2 C9 2.99 9 3.98 9 5 C4.545 4.01 4.545 4.01 0 3 C0 2.01 0 1.02 0 0 Z " fill="#A273FF" transform="translate(206,196)"/>
<path d="M0 0 C0.66 0 1.32 0 2 0 C2 0.99 2 1.98 2 3 C2.99 3.33 3.98 3.66 5 4 C5.66 4.66 6.32 5.32 7 6 C0.375 6.25 0.375 6.25 -3 4 C-2.01 4 -1.02 4 0 4 C0 2.68 0 1.36 0 0 Z " fill="#56A7E3" transform="translate(348,370)"/>
<path d="M0 0 C4.455 0.99 4.455 0.99 9 2 C9 2.99 9 3.98 9 5 C4.545 4.01 4.545 4.01 0 3 C0 2.01 0 1.02 0 0 Z " fill="#A071FF" transform="translate(430,266)"/>
<path d="M0 0 C2.97 0.33 5.94 0.66 9 1 C9 1.66 9 2.32 9 3 C6.03 3 3.06 3 0 3 C0 2.01 0 1.02 0 0 Z " fill="#9F6FFF" transform="translate(435,247)"/>
<path d="M0 0 C2.64 0 5.28 0 8 0 C8 0.99 8 1.98 8 3 C5.36 3 2.72 3 0 3 C0 2.01 0 1.02 0 0 Z " fill="#A071FF" transform="translate(203,217)"/>
<path d="M0 0 C-0.33 0.99 -0.66 1.98 -1 3 C-3.31 3.33 -5.62 3.66 -8 4 C-8 3.01 -8 2.02 -8 1 C-5.07175348 0.02391783 -3.04386724 -0.08226668 0 0 Z " fill="#A273FF" transform="translate(441,196)"/>
<path d="M0 0 C0.99 0 1.98 0 3 0 C2.34 2.64 1.68 5.28 1 8 C0.01 8 -0.98 8 -2 8 C-1.125 2.25 -1.125 2.25 0 0 Z " fill="#A071FF" transform="translate(364,114)"/>
<path d="M0 0 C-4.95 2.475 -4.95 2.475 -10 5 C-10 4.01 -10 3.02 -10 2 C-4.5 -1.125 -4.5 -1.125 0 0 Z " fill="#15C4CD" transform="translate(395,353)"/>
<path d="M0 0 C0 0.66 0 1.32 0 2 C-4.455 3.485 -4.455 3.485 -9 5 C-9 4.01 -9 3.02 -9 2 C-5.62902617 0.50178941 -3.79557881 0 0 0 Z " fill="#9B6AFF" transform="translate(439,186)"/>
<path d="M0 0 C-1 2 -1 2 -2.84765625 2.6328125 C-3.57855469 2.79523438 -4.30945313 2.95765625 -5.0625 3.125 C-5.79597656 3.29257813 -6.52945312 3.46015625 -7.28515625 3.6328125 C-7.85105469 3.75398437 -8.41695313 3.87515625 -9 4 C-9.33 3.01 -9.66 2.02 -10 1 C-3.71428571 -1.42857143 -3.71428571 -1.42857143 0 0 Z " fill="#A97EFF" transform="translate(317,186)"/>
<path d="M0 0 C-1.25125384 3.75376152 -2.5652404 4.24073289 -6 6 C-6.66 6 -7.32 6 -8 6 C-8 5.01 -8 4.02 -8 3 C-5.11165997 0.89229241 -3.61537605 0 0 0 Z " fill="#9B69FF" transform="translate(430,167)"/>
<path d="M0 0 C0.66 0.33 1.32 0.66 2 1 C2 2.65 2 4.3 2 6 C1.67 4.68 1.34 3.36 1 2 C-1.64 2.33 -4.28 2.66 -7 3 C-7 2.01 -7 1.02 -7 0 C-3.83299069 -1.05566977 -3.03571759 -0.97926374 0 0 Z " fill="#5AD7DC" transform="translate(301,81)"/>
<path d="M0 0 C0.66 0 1.32 0 2 0 C2.20140476 3.62528568 1.85776765 5.86501708 0 9 C-0.66 9 -1.32 9 -2 9 C-1.125 2.25 -1.125 2.25 0 0 Z " fill="#9B68FF" transform="translate(284,334)"/>
<path d="M0 0 C0.66 0.66 1.32 1.32 2 2 C-3.625 6 -3.625 6 -7 6 C-6 3 -6 3 -2.9375 1.3125 C-1.968125 0.879375 -0.99875 0.44625 0 0 Z " fill="#9A68FF" transform="translate(225,284)"/>
<path d="M0 0 C2.64 0.99 5.28 1.98 8 3 C8 3.66 8 4.32 8 5 C2.46153846 4.38461538 2.46153846 4.38461538 0.125 2.4375 C-0.24625 1.963125 -0.6175 1.48875 -1 1 C-0.67 0.67 -0.34 0.34 0 0 Z " fill="#9A68FF" transform="translate(427,275)"/>
<path d="M0 0 C-3.18762365 2.12508244 -5.26512223 2.5020163 -9 3 C-8.67 2.01 -8.34 1.02 -8 0 C-4.71023192 -1.09658936 -3.28696233 -0.79953138 0 0 Z " fill="#9A68FE" transform="translate(340,269)"/>
<path d="M0 0 C0 0.99 0 1.98 0 3 C-2.64 3.33 -5.28 3.66 -8 4 C-7.67 3.01 -7.34 2.02 -7 1 C-4.52260646 0.09162237 -2.66420516 0 0 0 Z " fill="#9C6BFF" transform="translate(215,257)"/>
<path d="M0 0 C-2.93828597 2.50298434 -5.17902761 3.46930939 -9 4 C-8 1 -8 1 -5.625 -0.25 C-3 -1 -3 -1 0 0 Z " fill="#9865FF" transform="translate(435,177)"/>
<path d="M0 0 C-1.25125384 3.75376152 -2.5652404 4.24073289 -6 6 C-6.66 6 -7.32 6 -8 6 C-6.24081631 1.94034532 -4.71412298 0 0 0 Z " fill="#9864FF" transform="translate(424,158)"/>
<path d="M0 0 C0.66 0 1.32 0 2 0 C3.5625 2.8125 3.5625 2.8125 5 6 C4.67 6.99 4.34 7.98 4 9 C1.47740939 7.02579865 1.0070192 6.03254358 0.3125 2.8125 C0.209375 1.884375 0.10625 0.95625 0 0 Z " fill="#9A67FF" transform="translate(272,118)"/>
<path d="M0 0 C-1.28913487 0.67154933 -2.58140204 1.33708859 -3.875 2 C-4.59429687 2.37125 -5.31359375 2.7425 -6.0546875 3.125 C-8 4 -8 4 -10 4 C-9 1 -9 1 -6.6875 -0.25 C-3.83402593 -1.04631835 -2.75197675 -0.8214856 0 0 Z " fill="#18C5CD" transform="translate(277,95)"/>
<path d="M0 0 C-3.21627837 2.14418558 -5.19090105 2.67582137 -9 3 C-9.66 2.34 -10.32 1.68 -11 1 C-6.92630576 -1.03684712 -4.41062136 -1.0257259 0 0 Z " fill="#33CCD3" transform="translate(281,87)"/>
<path d="M0 0 C0.66 0 1.32 0 2 0 C1.45276317 3.37462715 0.9451 5.08235 -1 8 C-1.66 8 -2.32 8 -3 8 C-2.45276317 4.62537285 -1.9451 2.91765 0 0 Z " fill="#9763FF" transform="translate(266,326)"/>
<path d="M0 0 C3.75376152 1.25125384 4.24073289 2.5652404 6 6 C6 6.66 6 7.32 6 8 C5.01 8 4.02 8 3 8 C0 2.25 0 2.25 0 0 Z " fill="#9762FF" transform="translate(380,326)"/>
<path d="M0 0 C0 0.66 0 1.32 0 2 C0.66 2.33 1.32 2.66 2 3 C0.741875 2.87625 -0.51625 2.7525 -1.8125 2.625 C-2.87404297 2.52058594 -2.87404297 2.52058594 -3.95703125 2.4140625 C-6 2 -6 2 -9 0 C-5.52176885 -1.15941038 -3.54104422 -0.70820884 0 0 Z " fill="#37CDD4" transform="translate(305,317)"/>
<path d="M0 0 C3.45925163 1.2491742 6.14693203 2.67527795 9 5 C7.3125 5.75 7.3125 5.75 5 6 C2.25 4.1875 2.25 4.1875 0 2 C0 1.34 0 0.68 0 0 Z " fill="#28C9D1" transform="translate(271,303)"/>
<path d="M0 0 C2.9719385 1.12451727 5.33440687 2.22293791 8 4 C8 4.66 8 5.32 8 6 C4.65750371 5.40312566 2.53563658 4.26396123 0 2 C0 1.34 0 0.68 0 0 Z " fill="#9865FF" transform="translate(422,284)"/>
<path d="M0 0 C-1 3 -1 3 -2.875 4.1875 C-5 5 -5 5 -8 5 C-8 4.01 -8 3.02 -8 2 C-2.25 0 -2.25 0 0 0 Z " fill="#9A68FF" transform="translate(218,266)"/>
<path d="M0 0 C1.485 0.99 1.485 0.99 3 2 C2.67 4.97 2.34 7.94 2 11 C1.01 10.34 0.02 9.68 -1 9 C-0.67 6.03 -0.34 3.06 0 0 Z " fill="#5ED7DD" transform="translate(177,195)"/>
<path d="M0 0 C3.7952131 1.49097658 5.61042731 3.75700849 8 7 C5 7 5 7 2.3125 4.625 C0 2 0 2 0 0 Z " fill="#0BC2CB" transform="translate(426,120)"/>
<path d="M0 0 C3.3 0.33 6.6 0.66 10 1 C10 1.66 10 2.32 10 3 C8.5199159 2.88637738 7.04089926 2.75877092 5.5625 2.625 C4.73878906 2.55539063 3.91507812 2.48578125 3.06640625 2.4140625 C2.38449219 2.27742188 1.70257813 2.14078125 1 2 C0.67 1.34 0.34 0.68 0 0 Z " fill="#17C5CD" transform="translate(344,87)"/>
<path d="M0 0 C0 0.66 0 1.32 0 2 C-3.47325181 3.1577506 -6.36067448 3.06866652 -10 3 C-6.88378718 -0.11621282 -4.21175599 -0.11383124 0 0 Z " fill="#13C3CC" transform="translate(361,372)"/>
<path d="M0 0 C0.66 0 1.32 0 2 0 C1.125 5.75 1.125 5.75 0 8 C-0.66 8 -1.32 8 -2 8 C-1.125 2.25 -1.125 2.25 0 0 Z " fill="#9864FF" transform="translate(294,338)"/>
<path d="M0 0 C0.66 0 1.32 0 2 0 C2.125 5.75 2.125 5.75 1 8 C0.34 8 -0.32 8 -1 8 C-1.125 2.25 -1.125 2.25 0 0 Z " fill="#9865FF" transform="translate(303,340)"/>
<path d="M0 0 C1 3 1 3 0.25 5.625 C-1 8 -1 8 -4 9 C-2.25 2.25 -2.25 2.25 0 0 Z " fill="#1BC6CE" transform="translate(463,280)"/>
<path d="M0 0 C0.33 0 0.66 0 1 0 C2.45295405 8.19256018 2.45295405 8.19256018 0.5625 11.5625 C0.046875 12.036875 -0.46875 12.51125 -1 13 C-1.0272415 11.58344207 -1.04650467 10.16672955 -1.0625 8.75 C-1.07410156 7.96109375 -1.08570313 7.1721875 -1.09765625 6.359375 C-1.00385306 4.09308998 -0.63241063 2.1711105 0 0 Z " fill="#53D5DB" transform="translate(471,200)"/>
<path d="M0 0 C0.99 0 1.98 0 3 0 C1.70700306 2.88437779 0.34058637 4.87219421 -2 7 C-2.66 6.34 -3.32 5.68 -4 5 C-2.1875 2.5 -2.1875 2.5 0 0 Z " fill="#9966FF" transform="translate(230,151)"/>
<path d="M0 0 C2.97 0.33 5.94 0.66 9 1 C8.01 1.495 8.01 1.495 7 2 C7 2.66 7 3.32 7 4 C4.69 3.34 2.38 2.68 0 2 C0 1.34 0 0.68 0 0 Z " fill="#2CCAD2" transform="translate(340,137)"/>
<path d="M0 0 C0.66 0 1.32 0 2 0 C4.04169485 2.90548882 5 4.40142046 5 8 C4.34 8 3.68 8 3 8 C0.95830515 5.09451118 0 3.59857954 0 0 Z " fill="#9560FF" transform="translate(263,123)"/>
<path d="M0 0 C0.99 0 1.98 0 3 0 C3.33 2.64 3.66 5.28 4 8 C3.34 8 2.68 8 2 8 C1.34 5.36 0.68 2.72 0 0 Z " fill="#9764FF" transform="translate(291,111)"/>
<path d="M0 0 C0 0.99 0 1.98 0 3 C-1.98 3.66 -3.96 4.32 -6 5 C-6.66 4.34 -7.32 3.68 -8 3 C-2.25 0 -2.25 0 0 0 Z " fill="#30CBD3" transform="translate(267,97)"/>
<path d="M0 0 C3.46941546 0.45822468 6.67395049 0.89131683 10 2 C10 2.66 10 3.32 10 4 C6.28111761 3.49287967 3.26545761 2.88391785 0 1 C0 0.67 0 0.34 0 0 Z " fill="#0FC2CB" transform="translate(362,91)"/>
<path d="M0 0 C0.66 0 1.32 0 2 0 C1.45276317 3.37462715 0.9451 5.08235 -1 8 C-1.66 8 -2.32 8 -3 8 C-1.125 2.25 -1.125 2.25 0 0 Z " fill="#925BFF" transform="translate(275,331)"/>
<path d="M0 0 C0 0.66 0 1.32 0 2 C-5.75 5 -5.75 5 -8 5 C-7 2 -7 2 -5.125 0.8125 C-3 0 -3 0 0 0 Z " fill="#915AFF" transform="translate(222,276)"/>
<path d="M0 0 C-0.33 0.66 -0.66 1.32 -1 2 C-3.64860427 2.59355614 -6.29197322 2.74209269 -9 3 C-9 2.34 -9 1.68 -9 1 C-5.8035914 -0.06546953 -3.34252724 -0.07427838 0 0 Z " fill="#1EC6CE" transform="translate(287,84)"/>
<path d="M0 0 C0 0.66 0 1.32 0 2 C-2.70879335 3.35439668 -5.00933268 3.06501451 -8 3 C-5.53387212 -0.1151089 -3.89156016 -0.31553191 0 0 Z " fill="#23C7CF" transform="translate(308,137)"/>
<path d="M0 0 C0.66 0 1.32 0 2 0 C3.25664978 2.90600261 4 4.79604584 4 8 C3.34 8 2.68 8 2 8 C0.74335022 5.09399739 0 3.20395416 0 0 Z " fill="#9159FF" transform="translate(282,114)"/>
<path d="M0 0 C0.66 0 1.32 0 2 0 C1.125 5.75 1.125 5.75 0 8 C-0.66 8 -1.32 8 -2 8 C-1.34 5.36 -0.68 2.72 0 0 Z " fill="#925BFF" transform="translate(354,111)"/>
<path d="M0 0 C1.98 0.66 3.96 1.32 6 2 C5.01 3.485 5.01 3.485 4 5 C2.02 4.01 0.04 3.02 -2 2 C-1.34 1.34 -0.68 0.68 0 0 Z " fill="#31CCD3" transform="translate(385,99)"/>
<path d="M0 0 C1.2077558 3.62326739 0.54311128 4.64146369 -1 8 C-1.66 7.67 -2.32 7.34 -3 7 C-2.25 2.25 -2.25 2.25 0 0 Z " fill="#19C5CE" transform="translate(187,169)"/>
<path d="M0 0 C0.33 0 0.66 0 1 0 C1.125 2.875 1.125 2.875 1 6 C0.34 6.66 -0.32 7.32 -1 8 C-1.66 8 -2.32 8 -3 8 C-1.125 2.25 -1.125 2.25 0 0 Z " fill="#2FCBD3" transform="translate(196,163)"/>
<path d="M0 0 C0.99 0 1.98 0 3 0 C1.92598892 2.91517292 1.22189824 4.77810176 -1 7 C-1.625 5.1875 -1.625 5.1875 -2 3 C-1.34 2.01 -0.68 1.02 0 0 Z " fill="#9A68FF" transform="translate(227,165)"/>
</svg>
