<?xml version="1.0" encoding="UTF-8"?>
<svg version="1.1" xmlns="http://www.w3.org/2000/svg" width="459" height="163">
<path d="M0 0 C151.47 0 302.94 0 459 0 C459 53.79 459 107.58 459 163 C307.53 163 156.06 163 0 163 C0 109.21 0 55.42 0 0 Z " fill="#FDFEFE" transform="translate(0,0)"/>
<path d="M0 0 C0.33 1.32 0.66 2.64 1 4 C2.27641357 3.98428955 3.55282715 3.9685791 4.86791992 3.95239258 C9.61085684 3.89802619 14.3537663 3.86362537 19.09692383 3.83520508 C21.14840326 3.82013378 23.19985056 3.79967318 25.2512207 3.77368164 C28.20271748 3.73722576 31.15378763 3.72025694 34.10546875 3.70703125 C35.47761787 3.68380547 35.47761787 3.68380547 36.87748718 3.66011047 C42.88585118 3.65852834 46.32056991 4.41509878 50.76464844 8.70239258 C55.15163199 13.87314984 59.2547586 19.20917657 63.25 24.6875 C63.86101563 25.51572266 64.47203125 26.34394531 65.1015625 27.19726562 C67.94078224 31.06864713 70.52147861 34.86913102 73 39 C64.09 39 55.18 39 46 39 C46 40.32 46 41.64 46 43 C63.82 43 81.64 43 100 43 C96.54613896 48.18079156 93.30716505 53.03561063 89.5 57.875 C85.36227839 63.18148844 81.35035034 68.57100175 77.375 74 C71.58167013 81.90631353 65.66331795 89.70963027 59.69873047 97.48730469 C55.86144527 102.50666527 52.12450169 107.57531579 48.5 112.75 C37.78118189 127.95946198 37.78118189 127.95946198 31 130 C28.54296875 130.1953125 28.54296875 130.1953125 26.1875 130.125 C25.39730469 130.10695312 24.60710938 130.08890625 23.79296875 130.0703125 C23.20128906 130.04710937 22.60960938 130.02390625 22 130 C22 130.99 22 131.98 22 133 C30.57682288 132.55742373 36.52629493 131.93552084 42.5 125.3125 C44.31563544 123.17108315 45.96510658 121.05366117 47.49609375 118.69921875 C51.09342952 113.21060077 51.09342952 113.21060077 54.15234375 112.5 C56.375 112.5 56.375 112.5 60 113 C58.61418757 115.95816856 57.0046712 118.50403656 55.05859375 121.125 C54.18932251 122.30026245 54.18932251 122.30026245 53.30249023 123.49926758 C52.68704346 124.32450928 52.07159668 125.14975098 51.4375 126 C50.80851807 126.84780029 50.17953613 127.69560059 49.53149414 128.5690918 C47.69065142 131.04830077 45.84555268 133.52429636 44 136 C43.08311782 137.23551718 42.16642389 138.47117411 41.25 139.70703125 C39.77770939 141.68417828 38.29683647 143.65498428 36.8046875 145.6171875 C35.74235397 147.01983566 34.69748317 148.43656621 33.6953125 149.8828125 C30.17792823 154.71011919 25.67672323 157.4219939 20 159 C14.0099997 159.5682787 7.99903992 159.29407058 2 159 C2 160.32 2 161.64 2 163 C1.34 163 0.68 163 0 163 C0 109.21 0 55.42 0 0 Z " fill="#FEFDFE" transform="translate(0,0)"/>
<path d="M0 0 C6.01397009 -0.07432654 12.02767096 -0.12868588 18.04199219 -0.16479492 C20.08663594 -0.17985288 22.13124755 -0.20030357 24.17578125 -0.22631836 C27.11987252 -0.26283311 30.06353557 -0.27975651 33.0078125 -0.29296875 C33.9174173 -0.30845261 34.82702209 -0.32393646 35.76419067 -0.33988953 C41.81188263 -0.34148216 46.11402916 0.50534724 50.84375 4.59375 C58.29146067 13.16564341 66.56428799 22.78496625 71.97639465 32.80830383 C73.64054642 35.65002874 74.83149167 37.63388737 78.06452942 38.64685059 C80.62478597 38.9069658 83.10266206 38.94342415 85.67578125 38.90234375 C86.6009404 38.91463516 87.52609955 38.92692657 88.47929382 38.93959045 C91.42450484 38.97129919 94.36721116 38.95505008 97.3125 38.9375 C99.31317429 38.95061015 101.31383069 38.96685058 103.31445312 38.98632812 C108.2101693 39.02716482 113.10419523 39.02500605 118 39 C117.30132812 38.03578125 116.60265625 37.0715625 115.8828125 36.078125 C114.96339041 34.80219231 114.04412795 33.52614459 113.125 32.25 C112.66480469 31.61578125 112.20460938 30.9815625 111.73046875 30.328125 C109.54650236 27.28956306 107.65330239 24.36333575 106 21 C101.86964424 18.38410802 97.60242086 17.87916829 92.796875 17.68359375 C91.8171875 17.64169922 90.8375 17.59980469 89.828125 17.55664062 C88.81234375 17.51732422 87.7965625 17.47800781 86.75 17.4375 C85.71875 17.39431641 84.6875 17.35113281 83.625 17.30664062 C81.0834613 17.20074318 78.54182804 17.09866557 76 17 C76 16.01 76 15.02 76 14 C79.87485635 13.91248587 83.74945643 13.85943565 87.625 13.8125 C89.26662109 13.77479492 89.26662109 13.77479492 90.94140625 13.73632812 C98.28865739 13.66953493 102.80066494 14.19365413 108.48046875 19.17578125 C111.63003339 22.70622348 114.48777898 26.39489159 117.3125 30.1875 C117.86228516 30.91130859 118.41207031 31.63511719 118.97851562 32.38085938 C119.49736328 33.07373047 120.01621094 33.76660156 120.55078125 34.48046875 C121.02169189 35.10848389 121.49260254 35.73649902 121.9777832 36.38354492 C123 38 123 38 123 40 C130.26 40 137.52 40 145 40 C145 40.99 145 41.98 145 43 C143.27499268 43.01401855 143.27499268 43.01401855 141.51513672 43.02832031 C137.23203368 43.06831384 132.94964187 43.13409835 128.66699219 43.20751953 C126.81649947 43.23567498 124.96588771 43.25691646 123.11523438 43.27099609 C120.4486012 43.2925012 117.78339116 43.3391886 115.1171875 43.390625 C113.88402298 43.39246796 113.88402298 43.39246796 112.62594604 43.39434814 C107.2962549 43.5290228 104.20842203 44.44858737 100 48 C98.03222589 50.10826121 98.03222589 50.10826121 96.421875 52.44140625 C95.81859375 53.27220703 95.2153125 54.10300781 94.59375 54.95898438 C93.9853125 55.81814453 93.376875 56.67730469 92.75 57.5625 C92.12609375 58.42552734 91.5021875 59.28855469 90.859375 60.17773438 C88.52101293 63.42069987 86.21786886 66.67319672 84 70 C87.23183276 70.65506878 87.23183276 70.65506878 91 70 C93.59520201 67.74465491 95.40038168 65.027594 97.3125 62.1875 C97.83650391 61.44951172 98.36050781 60.71152344 98.90039062 59.95117188 C100.98561611 57.00088485 102.99600722 54.00598917 105 51 C106.485 51.495 106.485 51.495 108 52 C106.51724605 56.37533952 104.24005492 59.59723179 101.4375 63.25 C101.02564453 63.79140625 100.61378906 64.3328125 100.18945312 64.890625 C97.21552579 68.78447421 97.21552579 68.78447421 96 70 C128.01 70.33 160.02 70.66 193 71 C193 72.32 193 73.64 193 75 C191.76797348 74.96811584 190.53594696 74.93623169 189.2665863 74.90338135 C177.60163994 74.61478269 165.9391918 74.43358291 154.27088833 74.35490799 C148.27261272 74.31108109 142.27966445 74.23072598 136.28344727 74.06396484 C130.48537713 73.90410663 124.69372643 73.84402793 118.89354134 73.85027313 C116.69208739 73.83565278 114.49055672 73.78631607 112.29073906 73.70020294 C100.29928943 73.07859675 100.29928943 73.07859675 89.69566727 77.84202576 C84.53661655 83.30322221 80.87460556 89.59896495 77 96 C73.7 100.62 70.4 105.24 67 110 C146.53 110 226.06 110 308 110 C308 110.99 308 111.98 308 113 C306.75447263 112.98948325 305.50894526 112.9789665 304.22567463 112.96813107 C274.62091868 112.72197367 245.01704493 112.56409511 215.41137533 112.51407167 C211.76293703 112.50783037 208.1145005 112.50084832 204.46606445 112.4934082 C203.73976448 112.49193954 203.01346452 112.49047088 202.26515546 112.48895771 C190.52370293 112.46345095 178.78341915 112.37801752 167.0424668 112.27020787 C154.9838713 112.16082406 142.92627954 112.11637041 130.86719149 112.13146263 C124.09774172 112.13809105 117.33111271 112.11530528 110.56229591 112.01739311 C104.1841599 111.92808193 97.81085652 111.91921675 91.43235207 111.97076797 C89.09786456 111.97569109 86.76310109 111.95177764 84.4292717 111.89613152 C72.4924538 111.29603323 72.4924538 111.29603323 61.79554915 115.67451787 C57.87754904 119.66899543 54.92720996 124.13743058 52.17031515 128.98544419 C50.60071144 131.6873269 48.75135809 134.13470411 46.84375 136.60546875 C45.15263054 138.91730592 43.46688752 141.23299203 41.78125 143.54882812 C35.04346661 152.75869177 28.85329509 160.81095098 17 163 C11.67017903 163.33682883 6.33331069 163.17668637 1 163 C1 161.68 1 160.36 1 159 C2.18335938 158.98582031 3.36671875 158.97164062 4.5859375 158.95703125 C17.68045262 158.8553576 17.68045262 158.8553576 29 153 C32.44500616 149.24900554 35.4686173 145.29367738 38.44042969 141.16259766 C40.14907899 138.79327776 41.88840386 136.44857453 43.6328125 134.10546875 C48.82383203 127.11900837 53.95616705 120.09348042 59 113 C52.9143241 113.11865842 52.9143241 113.11865842 48.2421875 116.765625 C47.4290385 117.91034933 46.6401486 119.07265013 45.875 120.25 C42.14438006 125.72896327 38.55322675 130.81559108 32 133 C30.10529184 133.0685495 28.2083166 133.08480372 26.3125 133.0625 C25.31863281 133.05347656 24.32476563 133.04445312 23.30078125 133.03515625 C22.16189453 133.01775391 22.16189453 133.01775391 21 133 C21 132.01 21 131.02 21 130 C22.17755859 129.88785156 22.17755859 129.88785156 23.37890625 129.7734375 C24.42949219 129.64195312 25.48007812 129.51046875 26.5625 129.375 C27.59503906 129.25898438 28.62757812 129.14296875 29.69140625 129.0234375 C37.30812154 126.66738153 41.5936727 120.25987058 45.9375 113.9375 C47.06901072 112.33019502 48.20324525 110.72480496 49.33984375 109.12109375 C49.93265137 108.28433105 50.52545898 107.44756836 51.13623047 106.58544922 C54.33144826 102.15299489 57.66888048 97.8306948 61 93.5 C66.5461961 86.27263797 71.95541707 78.96747751 77.25537109 71.55810547 C82.56607498 64.157672 88.09896 56.93276351 93.67236328 49.72900391 C95.12993668 47.83078125 96.56403447 45.91462071 98 44 C80.51 43.67 63.02 43.34 45 43 C45 41.68 45 40.36 45 39 C53.58 38.67 62.16 38.34 71 38 C68.504375 34.720625 66.00875 31.44125 63.4375 28.0625 C62.66591553 27.04808838 61.89433105 26.03367676 61.09936523 24.98852539 C59.75522153 23.22334113 58.4078524 21.4606105 57.05810547 19.69970703 C55.72065346 17.94531269 54.39595561 16.18109521 53.08642578 14.40576172 C52.49200684 13.61057129 51.89758789 12.81538086 51.28515625 11.99609375 C50.76961182 11.29540771 50.25406738 10.59472168 49.72290039 9.87280273 C46.33252737 6.18744756 43.43743829 4.85718949 38.48510742 4.56762695 C36.69217377 4.52638464 34.89883293 4.50080845 33.10546875 4.48828125 C31.68443596 4.46135445 31.68443596 4.46135445 30.23469543 4.43388367 C27.21900843 4.37984913 24.2034791 4.34590673 21.1875 4.3125 C19.13864997 4.2793209 17.08982072 4.24483069 15.04101562 4.20898438 C10.02745762 4.12412644 5.01394583 4.05728235 0 4 C0 2.68 0 1.36 0 0 Z " fill="#915AFF" transform="translate(1,0)"/>
<path d="M0 0 C82.5 0 165 0 250 0 C250 1.32 250 2.64 250 4 C245.05 4 240.1 4 235 4 C235.99 7.3 236.98 10.6 238 14 C241.96 14 245.92 14 250 14 C247.42215154 16.64752004 245.08351902 18.94432065 242 21 C242.99 26.94 242.99 26.94 244 33 C242.30729167 32.0234375 240.61458333 31.046875 238.921875 30.0703125 C236.97486343 28.98600118 235.00010291 27.98235143 233 27 C232.51789063 27.433125 232.03578125 27.86625 231.5390625 28.3125 C230.90742188 28.869375 230.27578125 29.42625 229.625 30 C228.99851562 30.556875 228.37203125 31.11375 227.7265625 31.6875 C226 33 226 33 224 33 C224.66 29.04 225.32 25.08 226 21 C224.02 19.5459375 224.02 19.5459375 222 18.0625 C220.64651756 17.06853634 219.30756357 16.0536394 218 15 C218 14.67 218 14.34 218 14 C221.96 14 225.92 14 230 14 C230.99 10.7 231.98 7.4 233 4 C156.11 4 79.22 4 0 4 C0 2.68 0 1.36 0 0 Z " fill="#22C8D0" transform="translate(208,71)"/>
<path d="M0 0 C6.01397009 -0.07432654 12.02767096 -0.12868588 18.04199219 -0.16479492 C20.08663594 -0.17985288 22.13124755 -0.20030357 24.17578125 -0.22631836 C27.11987252 -0.26283311 30.06353557 -0.27975651 33.0078125 -0.29296875 C33.9174173 -0.30845261 34.82702209 -0.32393646 35.76419067 -0.33988953 C41.81188263 -0.34148216 46.11402916 0.50534724 50.84375 4.59375 C58.29146067 13.16564341 66.56428799 22.78496625 71.97639465 32.80830383 C73.64054642 35.65002874 74.83149167 37.63388737 78.06452942 38.64685059 C80.62478597 38.9069658 83.10266206 38.94342415 85.67578125 38.90234375 C86.6009404 38.91463516 87.52609955 38.92692657 88.47929382 38.93959045 C91.42450484 38.97129919 94.36721116 38.95505008 97.3125 38.9375 C99.31317429 38.95061015 101.31383069 38.96685058 103.31445312 38.98632812 C108.2101693 39.02716482 113.10419523 39.02500605 118 39 C117.30132812 38.03578125 116.60265625 37.0715625 115.8828125 36.078125 C114.96339041 34.80219231 114.04412795 33.52614459 113.125 32.25 C112.66480469 31.61578125 112.20460938 30.9815625 111.73046875 30.328125 C109.54650236 27.28956306 107.65330239 24.36333575 106 21 C101.86964424 18.38410802 97.60242086 17.87916829 92.796875 17.68359375 C91.8171875 17.64169922 90.8375 17.59980469 89.828125 17.55664062 C88.81234375 17.51732422 87.7965625 17.47800781 86.75 17.4375 C85.71875 17.39431641 84.6875 17.35113281 83.625 17.30664062 C81.0834613 17.20074318 78.54182804 17.09866557 76 17 C76 16.01 76 15.02 76 14 C79.87485635 13.91248587 83.74945643 13.85943565 87.625 13.8125 C89.26662109 13.77479492 89.26662109 13.77479492 90.94140625 13.73632812 C98.28865739 13.66953493 102.80066494 14.19365413 108.48046875 19.17578125 C111.63003339 22.70622348 114.48777898 26.39489159 117.3125 30.1875 C117.86228516 30.91130859 118.41207031 31.63511719 118.97851562 32.38085938 C119.49736328 33.07373047 120.01621094 33.76660156 120.55078125 34.48046875 C121.02169189 35.10848389 121.49260254 35.73649902 121.9777832 36.38354492 C123 38 123 38 123 40 C130.26 40 137.52 40 145 40 C145 40.99 145 41.98 145 43 C143.27499268 43.01401855 143.27499268 43.01401855 141.51513672 43.02832031 C137.23203368 43.06831384 132.94964187 43.13409835 128.66699219 43.20751953 C126.81649947 43.23567498 124.96588771 43.25691646 123.11523438 43.27099609 C120.4486012 43.2925012 117.78339116 43.3391886 115.1171875 43.390625 C113.88402298 43.39246796 113.88402298 43.39246796 112.62594604 43.39434814 C107.29761943 43.52898832 104.21773698 44.46258117 100 48 C98.26286192 49.81255398 98.26286192 49.81255398 96.9140625 51.80859375 C96.38393555 52.54505127 95.85380859 53.28150879 95.30761719 54.0402832 C94.47472168 55.22690552 94.47472168 55.22690552 93.625 56.4375 C92.39502558 58.14972938 91.16318219 59.86061739 89.9296875 61.5703125 C89.28999023 62.46008789 88.65029297 63.34986328 87.99121094 64.26660156 C84.65744252 68.84297126 81.2002305 73.32368804 77.75 77.8125 C72.86458097 84.1880415 68.0726128 90.60677537 63.4465332 97.17260742 C60.30562534 101.6164104 57.03012234 105.93833766 53.68701172 110.23046875 C51.61250203 112.89500663 49.56751511 115.57293279 47.58203125 118.3046875 C38.4184168 130.86052773 38.4184168 130.86052773 32 133 C30.10529184 133.0685495 28.2083166 133.08480372 26.3125 133.0625 C25.31863281 133.05347656 24.32476563 133.04445312 23.30078125 133.03515625 C22.16189453 133.01775391 22.16189453 133.01775391 21 133 C21 132.01 21 131.02 21 130 C22.17755859 129.88785156 22.17755859 129.88785156 23.37890625 129.7734375 C24.42949219 129.64195312 25.48007812 129.51046875 26.5625 129.375 C27.59503906 129.25898438 28.62757812 129.14296875 29.69140625 129.0234375 C37.30812154 126.66738153 41.5936727 120.25987058 45.9375 113.9375 C47.06901072 112.33019502 48.20324525 110.72480496 49.33984375 109.12109375 C49.93265137 108.28433105 50.52545898 107.44756836 51.13623047 106.58544922 C54.33144826 102.15299489 57.66888048 97.8306948 61 93.5 C66.5461961 86.27263797 71.95541707 78.96747751 77.25537109 71.55810547 C82.56607498 64.157672 88.09896 56.93276351 93.67236328 49.72900391 C95.12993668 47.83078125 96.56403447 45.91462071 98 44 C80.51 43.67 63.02 43.34 45 43 C45 41.68 45 40.36 45 39 C53.58 38.67 62.16 38.34 71 38 C68.504375 34.720625 66.00875 31.44125 63.4375 28.0625 C62.66591553 27.04808838 61.89433105 26.03367676 61.09936523 24.98852539 C59.75522153 23.22334113 58.4078524 21.4606105 57.05810547 19.69970703 C55.72065346 17.94531269 54.39595561 16.18109521 53.08642578 14.40576172 C52.49200684 13.61057129 51.89758789 12.81538086 51.28515625 11.99609375 C50.76961182 11.29540771 50.25406738 10.59472168 49.72290039 9.87280273 C46.33252737 6.18744756 43.43743829 4.85718949 38.48510742 4.56762695 C36.69217377 4.52638464 34.89883293 4.50080845 33.10546875 4.48828125 C31.68443596 4.46135445 31.68443596 4.46135445 30.23469543 4.43388367 C27.21900843 4.37984913 24.2034791 4.34590673 21.1875 4.3125 C19.13864997 4.2793209 17.08982072 4.24483069 15.04101562 4.20898438 C10.02745762 4.12412644 5.01394583 4.05728235 0 4 C0 2.68 0 1.36 0 0 Z " fill="#9059FE" transform="translate(1,0)"/>
<path d="M0 0 C0.73437912 0.00113916 1.46875824 0.00227832 2.22539127 0.003452 C3.49583701 -0.00550772 3.49583701 -0.00550772 4.79194832 -0.01464844 C6.19562403 -0.00154065 6.19562403 -0.00154065 7.62765682 0.01183194 C8.61758534 0.00926866 9.60751386 0.00670539 10.62744021 0.00406444 C13.96571801 -0.00090208 17.30354989 0.01566681 20.64178646 0.03201932 C23.02628749 0.03286497 25.4107893 0.03239166 27.79528987 0.0306918 C33.61175114 0.02991783 39.42806481 0.04296188 45.24449231 0.06200478 C52.01070844 0.08341879 58.77690334 0.08793751 65.54314862 0.09136929 C77.61023883 0.09793971 89.6772683 0.11791683 101.74432552 0.14627713 C113.46828075 0.17380246 125.19221951 0.1950435 136.91620052 0.20780057 C137.99969174 0.20898282 137.99969174 0.20898282 139.10507168 0.21018896 C142.72867555 0.214104 146.35227954 0.21789514 149.9758836 0.22162467 C180.05059561 0.25273894 210.12523668 0.30581332 240.19989192 0.37259549 C240.19989192 1.36259549 240.19989192 2.35259549 240.19989192 3.37259549 C159.67989192 3.37259549 79.15989192 3.37259549 -3.80010808 3.37259549 C-1.80010808 0.37259549 -1.80010808 0.37259549 0 0 Z " fill="#01C1CA" transform="translate(68.8001080751419,109.62740451097488)"/>
<path d="M0 0 C6.01397009 -0.07432654 12.02767096 -0.12868588 18.04199219 -0.16479492 C20.08663594 -0.17985288 22.13124755 -0.20030357 24.17578125 -0.22631836 C27.11987252 -0.26283311 30.06353557 -0.27975651 33.0078125 -0.29296875 C33.9174173 -0.30845261 34.82702209 -0.32393646 35.76419067 -0.33988953 C41.81188263 -0.34148216 46.11402916 0.50534724 50.84375 4.59375 C59.65370589 14.73351055 67.66066046 25.75482382 75 37 C74.34 37.99 73.68 38.98 73 40 C70.20263672 40.34057617 70.20263672 40.34057617 66.6796875 40.29296875 C65.42285156 40.28330078 64.16601562 40.27363281 62.87109375 40.26367188 C61.55238281 40.23853516 60.23367187 40.21339844 58.875 40.1875 C57.53517097 40.17245483 56.19532596 40.15876613 54.85546875 40.14648438 C51.56991158 40.11102872 48.28515418 40.06160849 45 40 C45 39.67 45 39.34 45 39 C53.58 38.67 62.16 38.34 71 38 C68.504375 34.720625 66.00875 31.44125 63.4375 28.0625 C62.66591553 27.04808838 61.89433105 26.03367676 61.09936523 24.98852539 C59.75522153 23.22334113 58.4078524 21.4606105 57.05810547 19.69970703 C55.72065346 17.94531269 54.39595561 16.18109521 53.08642578 14.40576172 C52.49200684 13.61057129 51.89758789 12.81538086 51.28515625 11.99609375 C50.76961182 11.29540771 50.25406738 10.59472168 49.72290039 9.87280273 C46.33252737 6.18744756 43.43743829 4.85718949 38.48510742 4.56762695 C36.69217377 4.52638464 34.89883293 4.50080845 33.10546875 4.48828125 C31.68443596 4.46135445 31.68443596 4.46135445 30.23469543 4.43388367 C27.21900843 4.37984913 24.2034791 4.34590673 21.1875 4.3125 C19.13864997 4.2793209 17.08982072 4.24483069 15.04101562 4.20898438 C10.02745762 4.12412644 5.01394583 4.05728235 0 4 C0 2.68 0 1.36 0 0 Z " fill="#945FFF" transform="translate(1,0)"/>
<path d="M0 0 C0.66 0 1.32 0 2 0 C2.99 3.3 3.98 6.6 5 10 C8.96 10 12.92 10 17 10 C14.42215154 12.64752004 12.08351902 14.94432065 9 17 C9.66 20.96 10.32 24.92 11 29 C8.4609375 27.53515625 8.4609375 27.53515625 5.921875 26.0703125 C3.97486343 24.98600118 2.00010291 23.98235143 0 23 C-0.48210937 23.433125 -0.96421875 23.86625 -1.4609375 24.3125 C-2.09257812 24.869375 -2.72421875 25.42625 -3.375 26 C-4.00148438 26.556875 -4.62796875 27.11375 -5.2734375 27.6875 C-7 29 -7 29 -9 29 C-8.34 25.04 -7.68 21.08 -7 17 C-8.32 16.030625 -9.64 15.06125 -11 14.0625 C-12.35348244 13.06853634 -13.69243643 12.0536394 -15 11 C-15 10.67 -15 10.34 -15 10 C-11.04 10 -7.08 10 -3 10 C-2.01 6.7 -1.02 3.4 0 0 Z " fill="#0BC3CC" transform="translate(441,75)"/>
<path d="M0 0 C32.34 0 64.68 0 98 0 C98 0.99 98 1.98 98 3 C65.33 3 32.66 3 -1 3 C-0.67 2.01 -0.34 1.02 0 0 Z " fill="#04C1CA" transform="translate(95,72)"/>
<path d="M0 0 C1.21171875 0.1340625 2.4234375 0.268125 3.671875 0.40625 C2.41903172 3.85972018 1.01614445 6.53948388 -1.26953125 9.41015625 C-1.84880371 10.14572754 -2.42807617 10.88129883 -3.02490234 11.63916016 C-3.94843506 12.79230713 -3.94843506 12.79230713 -4.890625 13.96875 C-10.11323643 20.47623808 -10.11323643 20.47623808 -14.97265625 27.25390625 C-20.30276934 35.08571865 -20.30276934 35.08571865 -23.65234375 36.1328125 C-25.890625 36.15625 -25.890625 36.15625 -29.328125 35.40625 C-28.06164201 32.73288783 -26.68684907 30.39408209 -24.89453125 28.04296875 C-24.4159668 27.41003906 -23.93740234 26.77710937 -23.44433594 26.125 C-22.38938084 24.74580037 -21.33402855 23.36690448 -20.27832031 21.98828125 C-17.5380292 18.39296739 -14.87581985 14.78380574 -12.37109375 11.01953125 C-11.90050537 10.32835205 -11.42991699 9.63717285 -10.94506836 8.92504883 C-10.05289156 7.6074189 -9.18140582 6.27547039 -8.33422852 4.9284668 C-5.87456014 1.35248367 -4.26811859 0.01501537 0 0 Z " fill="#F8F7FE" transform="translate(84.328125,74.59375)"/>
<path d="M0 0 C29.37 0 58.74 0 89 0 C89 0.99 89 1.98 89 3 C59.63 3 30.26 3 0 3 C0 2.01 0 1.02 0 0 Z " fill="#03C1CA" transform="translate(322,110)"/>
<path d="M0 0 C0.99 0.33 1.98 0.66 3 1 C1.51724605 5.37533952 -0.75994508 8.59723179 -3.5625 12.25 C-3.97435547 12.79140625 -4.38621094 13.3328125 -4.81054688 13.890625 C-7.78447421 17.78447421 -7.78447421 17.78447421 -9 19 C23.01 19.33 55.02 19.66 88 20 C87.67 21.32 87.34 22.64 87 24 C87 23.01 87 22.02 87 21 C38.49 21.495 38.49 21.495 -11 22 C-11.33 22.66 -11.66 23.32 -12 24 C-13.64363134 24.72159424 -15.31050386 25.39351421 -17 26 C-17 25.34 -17 24.68 -17 24 C-19.64 24 -22.28 24 -25 24 C-24.26391602 22.01611328 -24.26391602 22.01611328 -23 20 C-21.06225586 19.66748047 -21.06225586 19.66748047 -18.77734375 19.7421875 C-15.87093463 19.54078202 -14.4344275 19.360959 -12.17236328 17.48144531 C-10.50297638 15.42986068 -9.01668149 13.33412644 -7.5625 11.125 C-6.7900293 10.02478516 -6.7900293 10.02478516 -6.00195312 8.90234375 C-4.63960396 6.95207076 -3.31200319 4.98434742 -2 3 C-1.34 2.01 -0.68 1.02 0 0 Z " fill="#879CF1" transform="translate(106,51)"/>
<path d="M0 0 C3.87485635 -0.08751413 7.74945643 -0.14056435 11.625 -0.1875 C13.26662109 -0.22520508 13.26662109 -0.22520508 14.94140625 -0.26367188 C22.31220396 -0.33067913 26.81208406 0.20871435 32.51171875 5.19921875 C35.51874649 8.58389518 38.1769322 12.13537269 40.8125 15.8125 C41.56563477 16.85180664 41.56563477 16.85180664 42.33398438 17.91210938 C43.5599988 19.60517691 44.7805649 21.30218756 46 23 C45.34 23.99 44.68 24.98 44 26 C42.12704468 26.36076355 42.12704468 26.36076355 39.82568359 26.34057617 C38.53457169 26.34023628 38.53457169 26.34023628 37.21737671 26.33988953 C36.28712677 26.32440567 35.35687683 26.30892181 34.3984375 26.29296875 C33.44683746 26.28872391 32.49523743 26.28447906 31.51480103 26.28010559 C28.46791586 26.26327896 25.42168609 26.22561954 22.375 26.1875 C20.31250954 26.17245831 18.25000873 26.15876901 16.1875 26.14648438 C11.1247465 26.11336239 6.06248446 26.06155284 1 26 C1 25.67 1 25.34 1 25 C14.53 25 28.06 25 42 25 C37.05 18.07 37.05 18.07 32 11 C31.34 9.68 30.68 8.36 30 7 C25.86964424 4.38410802 21.60242086 3.87916829 16.796875 3.68359375 C15.32734375 3.62075195 15.32734375 3.62075195 13.828125 3.55664062 C12.81234375 3.51732422 11.7965625 3.47800781 10.75 3.4375 C9.71875 3.39431641 8.6875 3.35113281 7.625 3.30664062 C5.0834613 3.20074318 2.54182804 3.09866557 0 3 C0 2.01 0 1.02 0 0 Z " fill="#A273FF" transform="translate(77,14)"/>
<path d="M0 0 C3 0 3 0 5 1 C4.6189209 1.50635986 4.2378418 2.01271973 3.84521484 2.53442383 C2.02085219 4.95973056 0.19784064 7.38604912 -1.625 9.8125 C-2.29563477 10.70437012 -2.96626953 11.59624023 -3.65722656 12.51513672 C-7.13723622 17.15161797 -10.59593328 21.80138327 -14.0078125 26.48828125 C-14.6373584 27.35155029 -15.2669043 28.21481934 -15.91552734 29.10424805 C-17.12062723 30.76017782 -18.32160995 32.41911319 -19.51806641 34.08129883 C-20.06382324 34.83048584 -20.60958008 35.57967285 -21.171875 36.3515625 C-21.6472168 37.00979004 -22.12255859 37.66801758 -22.61230469 38.34619141 C-24 40 -24 40 -27 42 C-27.66 41.34 -28.32 40.68 -29 40 C-28.67 39.34 -28.34 38.68 -28 38 C-30.64 38 -33.28 38 -36 38 C-35.34 37.01 -34.68 36.02 -34 35 C-32.1171875 34.83105469 -32.1171875 34.83105469 -29.875 34.921875 C-26.69803283 34.6600929 -25.33505972 34.29341211 -22.91015625 32.16992188 C-20.80665674 29.60615168 -18.88808824 26.97630514 -17 24.25 C-16.31010986 23.30165283 -15.62021973 22.35330566 -14.90942383 21.3762207 C-11.89244745 17.20478727 -8.96836286 12.9721493 -6.07421875 8.71484375 C-5.66107422 8.10801758 -5.24792969 7.50119141 -4.82226562 6.87597656 C-3.76210408 5.29850728 -2.72954917 3.70258211 -1.69921875 2.10546875 C-1.13847656 1.41066406 -0.57773438 0.71585937 0 0 Z " fill="#915AFE" transform="translate(88,75)"/>
<path d="M0 0 C0.99 0.66 1.98 1.32 3 2 C5.01655136 2.2948525 5.01655136 2.2948525 7.24023438 2.24291992 C8.51670837 2.24753487 8.51670837 2.24753487 9.81896973 2.25224304 C10.73464722 2.24505753 11.65032471 2.23787201 12.59375 2.23046875 C13.53682007 2.23001053 14.47989014 2.22955231 15.45153809 2.2290802 C17.44540668 2.22605925 19.43927294 2.21817764 21.43310547 2.20581055 C24.48804063 2.1875714 27.54267236 2.18530078 30.59765625 2.18554688 C32.53385679 2.18063088 34.47005528 2.17480221 36.40625 2.16796875 C37.32192749 2.16685593 38.23760498 2.1657431 39.18103027 2.16459656 C40.45750427 2.15502678 40.45750427 2.15502678 41.75976562 2.14526367 C42.50794556 2.14145187 43.25612549 2.13764008 44.02697754 2.13371277 C46.21316229 2.06858948 46.21316229 2.06858948 49 1 C49 1.66 49 2.32 49 3 C56.26 3 63.52 3 71 3 C71 3.99 71 4.98 71 6 C69.92238403 5.95456055 69.92238403 5.95456055 68.82299805 5.90820312 C65.44465285 5.76810108 62.06609029 5.63405667 58.6875 5.5 C57.55892578 5.45230469 56.43035156 5.40460937 55.26757812 5.35546875 C35.78404276 4.59566514 16.29964362 5.11503687 -3.1875 5.5 C-5.70247077 5.54834298 -8.21744472 5.59652117 -10.73242188 5.64453125 C-16.8216524 5.76112498 -22.91084089 5.8797375 -29 6 C-29 5.01 -29 4.02 -29 3 C-19.76 3 -10.52 3 -1 3 C-0.67 2.01 -0.34 1.02 0 0 Z " fill="#884BFF" transform="translate(75,37)"/>
<path d="M0 0 C10.89 0 21.78 0 33 0 C33 1.32 33 2.64 33 4 C22.11 4 11.22 4 0 4 C0 2.68 0 1.36 0 0 Z " fill="#9A67FF" transform="translate(1,39)"/>
<path d="M0 0 C3.87485635 -0.08751413 7.74945643 -0.14056435 11.625 -0.1875 C13.26662109 -0.22520508 13.26662109 -0.22520508 14.94140625 -0.26367188 C25.23642592 -0.35726296 25.23642592 -0.35726296 30 3 C30.33 3.66 30.66 4.32 31 5 C28.38356796 5.96904891 27.31653726 6.1300893 24.68676758 5.04931641 C21.85705203 3.94417171 19.72162417 3.69198681 16.69921875 3.5859375 C15.72275391 3.54726563 14.74628906 3.50859375 13.74023438 3.46875 C12.73283203 3.4378125 11.72542969 3.406875 10.6875 3.375 C9.66076172 3.33632813 8.63402344 3.29765625 7.57617188 3.2578125 C5.05095735 3.16385103 2.52574408 3.0781846 0 3 C0 2.01 0 1.02 0 0 Z " fill="#8D53FF" transform="translate(77,14)"/>
<path d="M0 0 C0 0.99 0 1.98 0 3 C-4.97011673 4.99118241 -9.12333135 5.24845695 -14.375 5.125 C-15.47908203 5.11146484 -15.47908203 5.11146484 -16.60546875 5.09765625 C-18.4037888 5.07430144 -20.20193911 5.03843836 -22 5 C-22 3.68 -22 2.36 -22 1 C-19.08340625 0.83196579 -16.16673658 0.66552033 -13.25 0.5 C-12.0125 0.42845703 -12.0125 0.42845703 -10.75 0.35546875 C-9.55117188 0.28779297 -9.55117188 0.28779297 -8.328125 0.21875 C-7.5949707 0.17685547 -6.86181641 0.13496094 -6.10644531 0.09179688 C-4.07266386 0.00316662 -2.03571175 0 0 0 Z " fill="#9965FF" transform="translate(24,158)"/>
<path d="M0 0 C1.32 0 2.64 0 4 0 C2.5140084 4.59306496 0.14985318 7.43569245 -3 11 C-3.99 10.34 -4.98 9.68 -6 9 C-5.67 8.34 -5.34 7.68 -5 7 C-7.64 7 -10.28 7 -13 7 C-12.34 6.01 -11.68 5.02 -11 4 C-8.67969414 3.5497914 -6.45328854 3.49818007 -4.09375 3.40625 C-3.05734375 3.20515625 -3.05734375 3.20515625 -2 3 C-1.34 2.01 -0.68 1.02 0 0 Z " fill="#8B58FD" transform="translate(65,106)"/>
<path d="M0 0 C0.66 0 1.32 0 2 0 C3.5078125 1.96875 3.5078125 1.96875 5.125 4.5 C5.66382812 5.3353125 6.20265625 6.170625 6.7578125 7.03125 C7.16773437 7.6809375 7.57765625 8.330625 8 9 C7.01 10.485 7.01 10.485 6 12 C3.20263672 12.34057617 3.20263672 12.34057617 -0.3203125 12.29296875 C-1.57714844 12.28330078 -2.83398438 12.27363281 -4.12890625 12.26367188 C-5.44761719 12.23853516 -6.76632813 12.21339844 -8.125 12.1875 C-9.46482903 12.17245483 -10.80467404 12.15876613 -12.14453125 12.14648438 C-15.43008842 12.11102872 -18.71484582 12.06160849 -22 12 C-22 11.67 -22 11.34 -22 11 C-13.42 10.67 -4.84 10.34 4 10 C2.68 8.35 1.36 6.7 0 5 C-0.25 2.1875 -0.25 2.1875 0 0 Z " fill="#A67AFF" transform="translate(68,28)"/>
<path d="M0 0 C2.64 0 5.28 0 8 0 C7.34 1.32 6.68 2.64 6 4 C3.36 4 0.72 4 -2 4 C-1.34 2.68 -0.68 1.36 0 0 Z " fill="#25C5D1" transform="translate(83,71)"/>
<path d="M0 0 C2.97 0 5.94 0 9 0 C9 0.99 9 1.98 9 3 C6.03 3 3.06 3 0 3 C0 2.01 0 1.02 0 0 Z " fill="#894EFF" transform="translate(1,130)"/>
<path d="M0 0 C2.97 0 5.94 0 9 0 C9 0.99 9 1.98 9 3 C6.03 3 3.06 3 0 3 C0 2.01 0 1.02 0 0 Z " fill="#01C0C9" transform="translate(424,110)"/>
<path d="M0 0 C1.9453125 -0.29296875 1.9453125 -0.29296875 4.125 -0.1875 C5.40375 -0.125625 6.6825 -0.06375 8 0 C7.67 0.99 7.34 1.98 7 3 C4.03 3 1.06 3 -2 3 C-1.34 2.01 -0.68 1.02 0 0 Z " fill="#08BCCC" transform="translate(54,110)"/>
</svg>
